<?xml version="1.0" standalone="no"?>
<!DOCTYPE svg PUBLIC "-//W3C//DTD SVG 1.1//EN" "http://www.w3.org/Graphics/SVG/1.1/DTD/svg11.dtd" >
<svg xmlns="http://www.w3.org/2000/svg">
<metadata></metadata>
<defs>
<font id="jubilat_lightregular" horiz-adv-x="1449" >
<font-face units-per-em="2048" ascent="1536" descent="-512" />
<missing-glyph horiz-adv-x="473" />
<glyph horiz-adv-x="0" />
<glyph horiz-adv-x="682" />
<glyph unicode=" "  horiz-adv-x="473" />
<glyph unicode="&#x09;" horiz-adv-x="473" />
<glyph unicode="&#xa0;" horiz-adv-x="473" />
<glyph unicode="!" horiz-adv-x="403" d="M113 68q0 38 24 64t64 26q38 0 64 -26t26 -64q0 -36 -26 -64q-26 -27 -64 -27q-37 0 -63 27q-25 26 -25 64zM158 950v410h104v-410q0 -122 -14 -322q-16 -226 -17 -266h-41q-4 60 -12 185q-2 36 -7 110.5t-7 110.5q-6 100 -6 182z" />
<glyph unicode="&#x22;" horiz-adv-x="645" d="M125 1255v105h102v-105q0 -160 -32 -409h-35q-35 277 -35 409zM420 1255v105h100v-105q0 -153 -33 -409h-34q-33 257 -33 409z" />
<glyph unicode="#" horiz-adv-x="1253" d="M51 395v84h221l154 402h-236v84h269l151 395h82l-151 -395h391l151 395h82l-151 -395h188v-84h-221l-154 -402h236v-84h-268l-152 -395h-82l152 395h-391l-152 -395h-82l152 395h-189zM354 479h391l154 402h-391z" />
<glyph unicode="$" horiz-adv-x="1073" d="M66 369q0 62 28 97q28 36 76 36q33 0 54 -21q22 -22 22 -53q0 -76 -101 -78q7 -79 79 -140q70 -60 182 -87v565q-140 35 -220 104t-80 195q0 133 82 218q83 86 218 116v149h63v-137q44 4 80 4q47 0 90 -6v139h63v-151q131 -30 211 -110t80 -179q0 -55 -27 -88t-73 -33 q-30 0 -50 20t-20 48q0 69 90 76q-12 63 -68 112q-58 50 -143 74v-516q143 -39 226 -116q82 -76 82 -212t-83 -225q-81 -87 -225 -121v-178h-63v168q-51 -4 -88 -4q-58 0 -82 4v-168h-63v178q-153 30 -247 118q-93 87 -93 202zM197 997q0 -156 209 -213v461 q-209 -57 -209 -248zM469 113q21 -4 80 -4q65 0 90 4v528q-67 15 -104 21l-66 12v-561zM469 768q9 -2 92 -14l78 -15v514q-49 9 -92 9q-23 0 -78 -5v-489zM702 125q218 57 218 258q0 102 -57 158q-58 57 -161 86v-502z" />
<glyph unicode="%" horiz-adv-x="1402" d="M61 1067q0 139 87 227t225 88q133 0 217 -88t84 -227q0 -137 -87 -226t-222 -89q-134 0 -219 88t-85 227zM125 0l534 694l510 666h99l-516 -668l-529 -692h-98zM156 1061q0 -109 57 -173q57 -65 152 -65q97 0 157 65q60 64 60 173v14q0 105 -58 171q-57 65 -151 65 q-98 0 -158 -65q-59 -63 -59 -171v-14zM727 295q0 137 87 225t224 88q133 0 217 -88t84 -225q0 -139 -86 -228q-87 -90 -223 -90q-134 0 -219 90q-84 89 -84 228zM821 287q0 -107 58 -173q57 -65 151 -65q98 0 158 65q59 63 59 173v14q0 107 -57 171q-57 65 -152 65 q-97 0 -157 -65q-60 -64 -60 -171v-14z" />
<glyph unicode="&#x26;" horiz-adv-x="1517" d="M92 360q0 300 389 428q-108 174 -108 306q0 127 88 208q87 80 231 80q132 0 213 -77q82 -78 82 -199q0 -135 -92 -212t-281 -134l103 -142l139 -194l107 -152q103 128 188 416h-205v76h477v-76h-186q-89 -315 -227 -477q62 -81 110 -115q46 -33 103 -33q64 0 95 31 q30 30 30 101v81h77v-79q0 -115 -51 -167q-51 -53 -157 -53q-74 0 -136 38q-61 37 -141 132q-191 -170 -420 -170q-192 0 -310 108t-118 275zM195 367q0 -134 93 -221t240 -87q202 0 365 146q0 1 -15.5 21.5t-44.5 61t-63 87.5l-129 184l-123 174q-323 -123 -323 -366z M471 1098q0 -119 104 -281q171 58 247 117q77 60 77 172q0 90 -56 146q-57 57 -149 57q-95 0 -159 -61t-64 -150z" />
<glyph unicode="'" horiz-adv-x="352" d="M125 1255v105h102v-105q0 -160 -32 -409h-35q-35 277 -35 409z" />
<glyph unicode="(" horiz-adv-x="724" d="M80 502v18q0 368 139 579q140 212 406 259l22 4v-76l-18 -4q-436 -91 -436 -756v-26q0 -343 112 -537q112 -193 324 -237l18 -5v-75l-22 4q-266 47 -406 263q-139 215 -139 589z" />
<glyph unicode=")" horiz-adv-x="690" d="M43 -279l18 5q437 92 437 774v26q0 666 -437 756l-18 4v76l23 -4q546 -94 546 -838v-18q0 -374 -139 -589q-140 -217 -407 -263l-23 -4v75z" />
<glyph unicode="*" horiz-adv-x="712" d="M68 926l235 125l-233 118l39 68l223 -141l-13 264h78l-12 -266l219 143l37 -68l-231 -118l233 -125l-37 -68l-221 143l12 -264h-78l13 267l-228 -146z" />
<glyph unicode="+" horiz-adv-x="958" d="M100 461v82h338v340h82v-340h338v-82h-338v-340h-82v340h-338z" />
<glyph unicode="," horiz-adv-x="366" d="M66 -145q13 -5 38 -5q58 0 95 36t37 100q0 27 -15 51q-21 -45 -71 -45q-38 0 -59 21t-21 59t28 62t72 24q58 0 102 -48q43 -47 43 -122q0 -88 -57 -147q-57 -58 -149 -58q-13 0 -43 6v66z" />
<glyph unicode="-" horiz-adv-x="518" d="M51 459v84h434v-84h-434z" />
<glyph unicode="." horiz-adv-x="366" d="M94 68q0 37 25 64q24 26 63 26t65 -26q25 -25 25 -64q0 -38 -25 -64q-25 -27 -65 -27q-36 0 -62 27q-26 28 -26 64z" />
<glyph unicode="/" horiz-adv-x="688" d="M31 0l534 1360h92l-534 -1360h-92z" />
<glyph unicode="0" horiz-adv-x="1234" d="M76 680q0 331 145 516q145 186 406 186q253 0 393 -185q141 -186 141 -517t-146 -516q-148 -187 -405 -187q-252 0 -394 184q-140 182 -140 519zM186 666q0 -294 109 -451q108 -156 315 -156q213 0 327 158q114 157 114 449v30q0 292 -110 449q-109 155 -314 155 q-214 0 -327 -155q-114 -156 -114 -449v-30z" />
<glyph unicode="1" horiz-adv-x="835" d="M80 1010v88h63q146 0 206 72t75 200h84v-1253q0 -41 24 -41h242v-76h-651v76h258q25 0 25 41v1016q-88 -123 -267 -123h-59z" />
<glyph unicode="2" horiz-adv-x="1114" d="M86 999q0 167 134 275q133 108 337 108q217 0 340 -110q125 -111 125 -297q0 -105 -45 -181t-118 -122t-161 -80q-22 -9 -83 -33t-95 -37q-83 -32 -166 -79q-77 -44 -127 -119q-51 -77 -57 -181l-6 -51h717q47 0 51 37l6 229h78v-358h-928l2 131q1 116 49 203 q46 84 121 138q69 49 161 92q87 40 174 75t159 75q72 41 116 105q45 66 45 154q0 155 -96 242q-97 88 -268 88q-159 0 -263 -74t-122 -199q100 -6 100 -86q0 -36 -23 -56q-25 -22 -61 -22q-42 0 -69 35t-27 98z" />
<glyph unicode="3" horiz-adv-x="1114" d="M72 299q0 64 28 101q29 38 80 38q33 0 54 -22q22 -24 22 -56q0 -36 -27 -60t-75 -24q12 -102 113 -160q103 -59 263 -59q398 0 398 318v6q0 283 -385 283q-16 0 -26 -1l-30 -3q-10 -1 -28 -1h-21l-8 -2v88h23q20 -1 50 -3q18 -1 42 -1q157 0 257 74q99 74 99 197v6 q0 285 -350 285q-162 0 -257 -62q-96 -62 -106 -168q97 -2 97 -84q0 -33 -23 -54q-24 -22 -55 -22q-50 0 -78 37q-29 38 -29 99q0 149 125 241t326 92q223 0 341 -93t118 -265q0 -114 -74 -196q-72 -80 -203 -113q144 -28 225 -115q80 -86 80 -221q0 -191 -133 -296 q-135 -106 -377 -106q-209 0 -333 86q-123 85 -123 236z" />
<glyph unicode="4" horiz-adv-x="1114" d="M39 406v67l694 887h127l-725 -877h598v269q32 0 101 94v-363h225v-77h-225v-289q0 -41 24 -41h148v-76h-449v76h150q26 0 26 41v289h-694z" />
<glyph unicode="5" horiz-adv-x="1118" d="M90 332q0 60 29 98q28 37 78 37q31 0 52 -21t21 -49q0 -88 -102 -88q17 -109 114 -181q99 -73 265 -73q185 0 290 108t105 292v8q0 169 -99 268q-98 98 -270 98q-155 0 -248 -71q-95 -73 -122 -178l-74 4l84 776h815q-17 -56 -52 -74q-36 -18 -108 -18h-581l-64 -520 q124 161 363 161q213 0 337 -118t124 -328q0 -224 -133 -355t-365 -131q-208 0 -334 106q-125 105 -125 249z" />
<glyph unicode="6" horiz-adv-x="1179" d="M90 684q0 336 153 517t429 181q183 0 302 -85q120 -85 120 -205q0 -125 -109 -125q-34 0 -54 20q-22 22 -22 53q0 36 27 60q28 25 70 26q-27 84 -120 129t-214 45q-237 0 -358 -152t-121 -456q0 -78 12 -196q21 167 141 265q122 99 301 99q214 0 339 -116 q124 -115 124 -318q0 -206 -133 -327q-134 -122 -354 -122q-252 0 -393 185q-140 183 -140 522zM248 414q0 -158 105 -257q106 -100 270 -100q175 0 279 98t104 263v8q0 167 -100 262q-98 94 -273 94q-170 0 -277 -101q-108 -102 -108 -259v-8z" />
<glyph unicode="7" horiz-adv-x="1048" d="M55 969v393h74q118 0 224 -38q102 -37 168 -85q69 -51 137 -85q76 -38 143 -38q66 0 110 33l-4 211h92l-2 -148q0 -84 -30 -156t-80 -134q-49 -62 -111 -123q-67 -67 -126 -137q-68 -80 -123 -164q-57 -86 -104 -217q-46 -126 -67 -281h-75v27q17 193 78 343 q63 155 144 254q79 97 161 177q92 90 149 151q71 75 94 135q-52 -47 -137 -47q-75 0 -153 34q-82 35 -139 77q-60 43 -153 84t-192 51v-317h-78z" />
<glyph unicode="8" horiz-adv-x="1138" d="M70 336q0 256 356 356q-315 86 -315 336q0 163 123 258q124 96 331 96q222 0 338 -88q117 -88 117 -252q0 -126 -76 -205t-237 -124q362 -100 362 -365q0 -167 -138 -269t-364 -102q-228 0 -364 96q-133 94 -133 263zM168 338q0 -132 107 -206q108 -75 292 -75 q178 0 289 78t111 207q0 142 -111 211q-112 70 -319 113q-369 -86 -369 -328zM211 1034q0 -131 95 -191q98 -62 286 -102q172 37 252 110q80 72 80 189q0 128 -91 195q-92 68 -266 68q-166 0 -261 -71t-95 -198z" />
<glyph unicode="9" horiz-adv-x="1183" d="M74 924q0 204 133 331t352 127q254 0 393 -184q140 -185 140 -522q0 -334 -154 -517q-153 -182 -434 -182q-178 0 -298 84t-126 207q12 123 108 123q41 0 61 -20q21 -21 15 -54q6 -35 -20 -58q-28 -25 -76 -26q29 -86 123 -131q95 -45 215 -45q237 0 360 153t123 454 q0 58 -10 188q-21 -169 -141 -270q-123 -103 -301 -103q-214 0 -338 121q-125 122 -125 324zM178 922q0 -170 100 -268q98 -97 271 -97q167 0 276 107t109 264v10q0 157 -106 261t-267 104q-175 0 -279 -102t-104 -269v-10z" />
<glyph unicode=":" horiz-adv-x="366" d="M94 68q0 37 25 64q24 26 63 26t65 -26q25 -25 25 -64q0 -38 -25 -64q-25 -27 -65 -27q-36 0 -62 27q-26 28 -26 64zM94 770q0 38 25 65q24 25 63 25q40 0 65 -25t25 -65q0 -37 -25 -63q-25 -27 -65 -27q-36 0 -62 27q-26 28 -26 63z" />
<glyph unicode=";" horiz-adv-x="366" d="M66 -145q13 -5 38 -5q58 0 95 36t37 100q0 27 -15 51q-21 -45 -71 -45q-38 0 -59 21t-21 59t28 62t72 24q58 0 102 -48q43 -47 43 -122q0 -88 -57 -147q-57 -58 -149 -58q-13 0 -43 6v66zM94 770q0 38 25 65q24 25 63 25q40 0 65 -25t25 -65q0 -37 -25 -63 q-25 -27 -65 -27q-36 0 -62 27q-26 28 -26 63z" />
<glyph unicode="&#x3c;" horiz-adv-x="956" d="M104 477v49l746 379v-92l-621 -311l621 -312v-92z" />
<glyph unicode="=" horiz-adv-x="958" d="M72 293v80h815v-80h-815zM72 631v80h815v-80h-815z" />
<glyph unicode="&#x3e;" horiz-adv-x="956" d="M106 98v92l621 312l-621 311v92l748 -379v-49z" />
<glyph unicode="?" horiz-adv-x="983" d="M49 1008q0 162 120 268q119 106 318 106q194 0 312 -100q119 -101 119 -260q0 -85 -32 -151q-30 -62 -80 -101q-33 -26 -107 -77q-73 -50 -108 -76q-51 -37 -86 -100q-36 -65 -42 -148h-62v12q1 74 25 140q23 63 58 103q29 32 80 73q48 38 87 65q45 31 78 64q35 35 57 82 q23 49 23 110q0 131 -89 208t-241 77q-147 0 -239 -71q-93 -72 -111 -190q98 -6 98 -84q0 -33 -23 -55t-59 -22q-96 4 -96 127zM350 68q0 37 25 64q24 26 63 26t65 -26q25 -25 25 -64q0 -38 -25 -64q-25 -27 -65 -27q-36 0 -62 27q-26 28 -26 64z" />
<glyph unicode="@" horiz-adv-x="1560" d="M66 598q0 353 210 572q212 221 562 221q286 0 474 -149q187 -148 187 -429q0 -212 -109 -349q-110 -138 -266 -138q-90 0 -142 39t-58 106q-95 -143 -246 -143q-113 0 -182 73q-70 75 -70 189q0 175 103 297q103 123 251 123q86 0 144 -44q56 -43 77 -120l41 151h19 q27 0 67 19l-90 -346q-36 -141 -34 -172q0 -111 131 -111q125 0 211 122t86 304q0 250 -168 382t-424 132q-324 0 -516 -201q-193 -202 -193 -524q0 -272 170 -422q168 -149 449 -149q295 0 489 188l45 -45q-208 -207 -532 -207q-306 0 -496 166t-190 465zM512 590 q0 -89 51 -143t131 -54q112 0 191 109q78 108 78 252q0 84 -49 138q-48 52 -128 52q-116 0 -195 -102q-79 -101 -79 -252z" />
<glyph unicode="A" horiz-adv-x="1499" d="M37 0v76h143q37 0 53 43l478 1251h86l479 -1251q18 -43 45 -43h143v-76h-475v76h152q40 0 24 37l-145 385h-557l-141 -385q-15 -37 22 -37h152v-76h-459zM492 573h501l-252 662z" />
<glyph unicode="B" horiz-adv-x="1181" d="M55 0v76h146q24 0 24 41v1128q0 39 -24 39h-146v76h518q243 0 356 -85t113 -263q0 -124 -59 -199q-60 -76 -188 -106q319 -52 319 -349q0 -358 -508 -358h-551zM330 76h272q212 0 308 68q98 69 98 216q0 155 -98 227t-302 72h-278v-583zM330 731h198q215 0 312 65 q96 64 96 210t-87 212t-276 66h-243v-553z" />
<glyph unicode="C" horiz-adv-x="1353" d="M76 676q0 323 177 515q176 191 449 191q170 0 290 -80q122 -81 173 -215l15 273h71v-490h-82q-89 428 -460 428q-232 0 -378 -162q-147 -164 -147 -446v-22q0 -284 145 -446q144 -161 376 -161q186 0 317 98q132 99 162 302l88 -17q-33 -224 -186 -345 q-154 -122 -381 -122q-277 0 -453 189q-176 190 -176 510z" />
<glyph unicode="D" horiz-adv-x="1316" d="M55 0v76h146q24 0 24 41v1128q0 39 -24 39h-146v76h480q349 0 527 -175q179 -176 179 -509q0 -328 -186 -502t-539 -174h-461zM330 76h190q311 0 460 152q150 153 150 434v32q0 590 -591 590h-209v-1208z" />
<glyph unicode="E" horiz-adv-x="1163" d="M55 0v76h146q24 0 24 39v1130q0 39 -24 39h-146v76h953v-275h-80l-6 162q-5 22 -16 29q-13 8 -42 8h-534v-555h344q41 0 41 33l2 110h74v-364h-74l-2 110q0 35 -41 35h-344v-577h592q30 0 41 8q9 7 14 29l8 161h80v-274h-1010z" />
<glyph unicode="F" horiz-adv-x="1118" d="M55 0v76h146q24 0 24 39v1130q0 39 -24 39h-146v76h971v-275h-80l-6 162q-5 23 -15 29q-13 8 -42 8h-553v-590h332q38 0 38 35l2 111h76v-367h-76l-2 113q0 32 -38 32h-332v-503q0 -39 26 -39h148v-76h-449z" />
<glyph unicode="G" horiz-adv-x="1359" d="M70 678q0 324 175 514t443 190q180 0 304 -77q126 -78 173 -215l15 270h73v-481h-84q-85 419 -475 419q-225 0 -370 -161q-146 -163 -146 -445v-22q0 -289 137 -449t373 -160q199 0 328 115q127 114 127 334v27h-391v75h501v-612h-63l-29 262q-61 -141 -186 -212 q-129 -73 -297 -73q-276 0 -442 189q-166 188 -166 512z" />
<glyph unicode="H" horiz-adv-x="1421" d="M55 0v76h146q24 0 24 41v1128q0 39 -24 39h-146v76h449v-76h-148q-26 0 -26 -39v-516h762v516q0 39 -25 39h-149v76h448v-76h-145q-25 0 -25 -39v-1128q0 -41 25 -41h145v-76h-448v76h149q25 0 25 41v536h-762v-536q0 -41 26 -41h148v-76h-449z" />
<glyph unicode="I" horiz-adv-x="559" d="M55 0v76h146q26 0 26 41v1128q0 39 -26 39h-146v76h447v-76h-146q-24 0 -24 -39v-1128q0 -41 24 -41h146v-76h-447z" />
<glyph unicode="J" horiz-adv-x="864" d="M55 45v90q112 -74 244 -74q126 0 184 67t58 216v901q0 39 -25 39h-168v76h467v-76h-145q-25 0 -25 -39v-903q0 -186 -83 -275q-84 -90 -255 -90q-139 0 -252 68z" />
<glyph unicode="K" horiz-adv-x="1368" d="M55 0v76h146q24 0 24 41v1128q0 39 -24 39h-146v76h451v-76h-150q-24 0 -24 -39v-739l637 735q12 12 10 28q-1 15 -23 15h-153v76h471v-76h-117q-48 0 -78 -37l-381 -436l432 -688q18 -29 32 -38t40 -9h115v-76h-481v76h161q17 0 21 11q4 10 -4 26l-387 618l-295 -340 v-274q0 -41 24 -41h150v-76h-451z" />
<glyph unicode="L" horiz-adv-x="1097" d="M55 0v76h146q24 0 24 41v1128q0 39 -24 39h-146v76h449v-76h-148q-26 0 -26 -39v-1169h524q53 0 57 37l11 229h79v-342h-946z" />
<glyph unicode="M" horiz-adv-x="1740" d="M55 0v76h148q24 0 24 41v1128q0 39 -24 39h-148v76h330l477 -1206l498 1206h326v-76h-146q-24 0 -24 -39v-1128q0 -41 24 -41h146v-76h-449v76h149q25 0 25 41v1157l-524 -1278h-78l-500 1270v-1149q0 -41 25 -41h147v-76h-426z" />
<glyph unicode="N" horiz-adv-x="1529" d="M55 0v76h150q24 0 24 39v1130q0 39 -24 39h-150v76h305l869 -1180v1065q0 39 -25 39h-147v76h428v-76h-148q-24 0 -24 -39v-1251h-76l-924 1251v-1130q0 -39 25 -39h147v-76h-430z" />
<glyph unicode="O" d="M70 678q0 315 185 509q186 195 472 195q287 0 470 -196q183 -197 183 -508q0 -312 -184 -506q-184 -195 -471 -195q-289 0 -472 195t-183 506zM176 662q0 -272 154 -437q153 -164 395 -164q243 0 396 163q153 164 153 438v32q0 271 -154 439q-152 165 -393 165 q-243 0 -396 -165q-155 -167 -155 -439v-32z" />
<glyph unicode="P" horiz-adv-x="1120" d="M55 0v76h146q24 0 24 41v1128q0 39 -24 39h-146v76h520q478 0 478 -383q0 -393 -482 -393h-241v-467q0 -41 26 -41h148v-76h-449zM330 659h243q190 0 281 77q90 76 90 241q0 157 -90 232t-279 75h-245v-625z" />
<glyph unicode="Q" d="M70 678q0 315 185 509q186 195 472 195q287 0 470 -196q183 -197 183 -508q0 -294 -161 -482q-162 -189 -422 -212l14 -64q21 -88 70 -125t151 -37h176v-75h-196q-142 5 -213 61q-72 57 -99 168l-18 70q-271 17 -441 207q-171 192 -171 489zM176 662q0 -272 154 -437 q153 -164 395 -164q243 0 396 163q153 164 153 438v32q0 271 -154 439q-152 165 -393 165q-243 0 -396 -165q-155 -167 -155 -439v-32z" />
<glyph unicode="R" horiz-adv-x="1247" d="M55 0v76h146q24 0 24 41v1128q0 39 -24 39h-146v76h561q463 0 463 -356q0 -290 -299 -347q128 -39 186 -135q57 -94 68 -254q7 -115 36 -155q27 -37 104 -37h45v-76h-74q-121 0 -169 63q-49 64 -56 207q-10 188 -89 273q-78 84 -266 84h-235v-510q0 -41 24 -41h146v-76 h-445zM330 698h254q203 0 294 76t91 225q0 144 -88 214q-89 71 -277 71h-274v-586z" />
<glyph unicode="S" horiz-adv-x="1095" d="M96 90v318h86v-269q157 -80 369 -80q162 0 256 76t94 205q0 131 -95 194q-93 62 -286 103q-202 44 -307 128q-107 86 -107 245q0 166 124 269t323 103q237 0 412 -106v-313h-86v266q-138 71 -326 71q-160 0 -251 -75q-93 -77 -93 -201t88 -187t260 -100q217 -47 333 -132 q116 -86 116 -249q0 -169 -124 -274t-333 -105q-251 0 -453 113z" />
<glyph unicode="T" horiz-adv-x="1308" d="M80 1036v324h1132v-324h-82l-4 213q-1 37 -55 37h-375v-1169q0 -41 25 -41h147v-76h-448v76h147q25 0 25 41v1169h-373q-54 0 -55 -37l-4 -213h-80z" />
<glyph unicode="U" horiz-adv-x="1413" d="M49 1284v76h438v-76h-145q-25 0 -25 -39v-760q0 -233 92 -328q93 -96 314 -96q203 0 297 99q94 98 94 311v774q0 39 -24 39h-152v76h426v-76h-137q-27 -4 -27 -39v-778q0 -247 -120 -369q-120 -121 -365 -121q-270 0 -387 118q-117 119 -117 388v762q0 39 -25 39h-137z " />
<glyph unicode="V" horiz-adv-x="1509" d="M39 1284v76h475v-76h-154q-38 0 -22 -37l432 -1122l422 1122q12 37 -23 37h-155v76h465v-76h-146q-37 0 -53 -43l-481 -1247h-86l-484 1247q-16 43 -45 43h-145z" />
<glyph unicode="W" horiz-adv-x="2062" d="M47 1284v76h442v-76h-143q-32 0 -22 -37l303 -1085l354 1098q6 24 -12 24h-166v76h489v-76h-178q-24 0 -18 -24l358 -1096l297 1083q10 37 -22 37h-156v76h440v-76h-129q-35 0 -45 -43l-350 -1247h-86l-373 1167l-377 -1167h-84l-348 1247q-16 43 -45 43h-129z" />
<glyph unicode="X" horiz-adv-x="1406" d="M49 0v76h121q39 0 72 45l405 575l-379 547q-29 41 -57 41h-127v76h465v-76h-139q-20 0 -24 -12q-5 -13 5 -27l328 -481l330 475q12 18 12 29q0 16 -27 16h-155v76h454v-76h-129q-26 0 -61 -45l-379 -541l409 -583q27 -39 60 -39h123v-76h-463v76h139q20 0 24 11 q5 12 -5 26l-355 520l-358 -512q-14 -21 -6 -34q7 -11 28 -11h148v-76h-459z" />
<glyph unicode="Y" horiz-adv-x="1343" d="M55 1284v76h467v-76h-153q-38 0 -17 -33l330 -528l338 530q6 10 4 17q-1 5 -6 10q-4 4 -6 4h-152v76h432v-76h-127q-32 0 -51 -31l-391 -608v-528q0 -41 25 -41h147v-76h-449v76h148q24 0 24 41v528l-385 608q-22 31 -40 31h-138z" />
<glyph unicode="Z" horiz-adv-x="1202" d="M78 0v68l905 1216h-739q-26 0 -33 -7q-9 -9 -10 -28l-11 -248h-77v359h995v-68l-903 -1216h762q32 0 43 8q9 7 14 29l8 245h78v-358h-1032z" />
<glyph unicode="[" horiz-adv-x="595" d="M106 -352v1712h445v-78h-283q-32 0 -44 -16q-11 -15 -11 -66v-1393q0 -50 11 -65q12 -16 44 -16h283v-78h-445z" />
<glyph unicode="\" horiz-adv-x="688" d="M31 1360h92l534 -1360h-92z" />
<glyph unicode="]" horiz-adv-x="595" d="M45 -274h283q32 0 44 16q11 15 11 65v1393q0 51 -11 66q-12 16 -44 16h-283v78h444v-1712h-444v78z" />
<glyph unicode="^" horiz-adv-x="1044" d="M307 1049l174 272h82l174 -272h-71l-146 215l-143 -215h-70z" />
<glyph unicode="_" horiz-adv-x="526" d="M10 -31h506v-75h-506v75z" />
<glyph unicode="`" horiz-adv-x="1044" d="M332 1341l2 21h96l223 -283h-69z" />
<glyph unicode="a" horiz-adv-x="1085" d="M92 240q0 161 163 246q164 86 527 120v56q0 142 -66 208t-212 66q-212 0 -289 -123q68 -15 68 -78q0 -34 -23 -55t-59 -21q-39 0 -64 28q-24 27 -24 73q0 107 117 178q118 72 282 72q193 0 284 -85t91 -261v-549q0 -39 24 -39h142v-76h-246q-15 85 -21 227 q-44 -118 -147 -183q-107 -67 -238 -67q-137 0 -224 73q-85 72 -85 190zM195 250q0 -86 63 -140q64 -55 166 -55q160 0 259 110t99 284v90q-309 -29 -451 -95q-136 -63 -136 -194z" />
<glyph unicode="b" horiz-adv-x="1212" d="M16 1284v76h52q141 0 221 14v-614q52 118 154 184t235 66q211 0 337 -140t126 -374q0 -237 -127 -377q-128 -142 -336 -142q-137 0 -241 68q-103 67 -156 186q-3 -24 -13 -86q-3 -16 -8.5 -45.5t-7.5 -42.5q-2 -11 -4.5 -24.5t-4 -21t-1.5 -11.5h-74q16 118 16 340v899 q0 45 -24 45h-144zM289 485q0 -195 103 -310q104 -116 267 -116q172 0 274 113q101 111 101 311v23q0 200 -101 311q-102 113 -274 113q-163 0 -267 -117q-103 -116 -103 -309v-19z" />
<glyph unicode="c" horiz-adv-x="1042" d="M68 496q0 225 141 369q142 145 362 145q188 0 308 -96q118 -94 118 -252q0 -49 -26 -78q-28 -31 -66 -31q-37 0 -59 21q-23 21 -23 55q0 36 23 59q24 24 61 25q-22 104 -109 164q-86 59 -227 59q-180 0 -288 -119q-109 -120 -109 -313v-15q0 -196 104 -315t285 -119 q293 0 359 281l77 -23q-37 -156 -149 -245q-114 -91 -289 -91q-223 0 -358 143q-135 142 -135 376z" />
<glyph unicode="d" horiz-adv-x="1239" d="M70 496q0 231 128 373q128 141 337 141q130 0 234 -67q102 -66 155 -185v481q0 45 -25 45h-145v76h57q133 0 217 14v-1259q0 -39 25 -39h143v-76h-260q-10 87 -10 231q-52 -118 -155 -186t-234 -68q-212 0 -340 142q-127 140 -127 377zM178 483q0 -199 102 -311 q102 -113 273 -113q164 0 266 116q103 117 103 310v19q0 191 -103 309q-102 117 -266 117q-171 0 -273 -113t-102 -311v-23z" />
<glyph unicode="e" horiz-adv-x="1067" d="M68 494q0 227 135 371q136 145 352 145q203 0 325 -132q121 -131 121 -348v-49h-827q0 -183 105 -305q105 -121 280 -121q293 0 361 279l77 -23q-33 -151 -145 -242q-113 -92 -295 -92q-221 0 -355 146t-134 371zM174 553h723q-2 177 -93 280t-251 103q-163 0 -264 -106 q-100 -104 -115 -277z" />
<glyph unicode="f" horiz-adv-x="569" d="M47 913v76h152v148q0 132 57 195t176 63q80 0 139 -31v-80q-55 33 -125 33q-78 0 -112 -42q-33 -41 -33 -141v-6v-139h217v-76h-217v-798q0 -39 25 -39h153v-76h-430v76h125q25 0 25 39v798h-152z" />
<glyph unicode="g" horiz-adv-x="1064" d="M14 -207q0 84 66 142q68 60 180 88q-87 11 -134 53q-48 44 -48 112q0 58 42 106q43 49 113 71q-145 96 -145 286q0 154 117 256q118 103 289 103q206 0 317 -133q17 93 60 139q44 47 104 47q41 0 68 -25q26 -24 26 -61q0 -36 -20 -56q-22 -22 -54 -22q-61 0 -71 66 q-54 -44 -76 -140q45 -80 45 -178q0 -160 -112 -255t-296 -95q-107 0 -190 37q-133 -28 -133 -125q0 -103 164 -103h379q315 0 315 -229q0 -149 -146 -226t-391 -77q-469 0 -469 219zM107 -197q0 -86 92 -124q90 -37 286 -37q447 0 447 217q0 77 -59 112t-183 35h-311 q-123 -21 -198 -75q-74 -53 -74 -128zM190 647q0 -131 80 -206q78 -74 217 -74q143 0 223 73q81 74 81 203v6q0 132 -82 211q-83 80 -215 80q-135 0 -220 -80q-84 -80 -84 -207v-6z" />
<glyph unicode="h" horiz-adv-x="1181" d="M33 1284v76h57q133 0 217 14v-641q51 132 146 205q95 72 217 72q307 0 307 -324v-571q0 -39 24 -39h144v-76h-430v76h133q24 0 24 39v563q0 130 -52 189q-53 61 -171 61q-152 0 -247 -137t-95 -367v-309q0 -39 25 -39h141v-76h-438v76h143q25 0 25 39v1124q0 45 -25 45 h-145z" />
<glyph unicode="i" horiz-adv-x="540" d="M49 0v76h146q22 0 22 39v716q0 47 -9 65q-8 17 -36 17h-123v76h55q130 0 220 15v-889q0 -39 22 -39h143v-76h-440zM182 1280q0 35 24 59q25 25 60 25q34 0 61 -25q25 -24 25 -59q0 -37 -25 -61q-27 -25 -61 -25q-35 0 -60 25q-24 24 -24 61z" />
<glyph unicode="j" horiz-adv-x="468" d="M0 -272l18 -2h21q98 0 131 45t33 186v874q0 47 -9 65q-8 17 -36 17h-123v76h55q127 0 217 15v-1043q0 -181 -55 -248t-201 -67q-39 0 -51 6v76zM166 1280q0 36 23 59q25 25 61 25t61 -25t25 -59q0 -36 -25 -61t-61 -25t-61 25q-23 23 -23 61z" />
<glyph unicode="k" horiz-adv-x="1103" d="M33 1284v76h57q133 0 217 14v-966l451 473q9 9 10 15q2 8 -5 12q-8 5 -24 5h-123v76h420v-76h-108q-32 0 -62 -30l-260 -271l312 -506q22 -30 51 -30h106v-76h-413v76h118q29 0 29 11t-8 22l-266 434l-228 -238v-190q0 -39 25 -39h141v-76h-438v76h143q25 0 25 39v1124 q0 45 -25 45h-145z" />
<glyph unicode="l" horiz-adv-x="540" d="M49 0v76h146q22 0 22 39v1124q0 45 -22 45h-146v76h55q136 0 220 14v-1259q0 -39 22 -39h146v-76h-443z" />
<glyph unicode="m" horiz-adv-x="1740" d="M49 0v76h144q24 0 24 39v753q0 45 -24 45h-144v76h53q127 0 217 15v-203q86 209 295 209q246 0 291 -246q89 246 312 246q161 0 236 -90t75 -279v-526q0 -39 24 -39h144v-76h-428v76h131q24 0 24 39v518q0 155 -53 225t-174 70q-129 0 -200 -107q-70 -106 -70 -301v-405 q0 -39 24 -39h152v-76h-438v76h133q24 0 24 39v553q0 260 -225 260q-133 0 -204 -107q-70 -106 -70 -301v-405q0 -39 24 -39h141v-76h-438z" />
<glyph unicode="n" horiz-adv-x="1204" d="M49 0v76h144q24 0 24 39v753q0 45 -24 45h-144v76h55q128 0 218 15v-279q52 138 144 211q94 74 218 74q309 0 309 -330v-565q0 -39 25 -39h143v-76h-430v76h133q25 0 25 39v559q0 127 -53 191q-53 63 -170 63q-155 0 -249 -136q-95 -137 -95 -368v-309q0 -39 24 -39h143 v-76h-440z" />
<glyph unicode="o" horiz-adv-x="1110" d="M68 496q0 225 137 370q137 144 354 144q213 0 347 -143t134 -371q0 -230 -135 -374q-136 -145 -352 -145q-214 0 -350 145q-135 144 -135 374zM172 489q0 -198 103 -316t278 -118q179 0 282 118t103 316v11q0 198 -103 316t-278 118q-179 0 -282 -118t-103 -316v-11z" />
<glyph unicode="p" horiz-adv-x="1232" d="M33 913v76h55q127 0 217 15l-2 -252q50 118 154 189q102 69 239 69q211 0 336 -140t125 -374q0 -237 -127 -377q-128 -142 -336 -142q-130 0 -234 67q-102 66 -153 183v-465q0 -38 25 -38h143v-76h-440v76h143q25 0 25 38v1106q0 45 -25 45h-145zM307 485 q0 -194 104 -309t265 -115q171 0 274 112t103 310v23q0 198 -103 310t-274 112q-164 0 -266 -116q-103 -117 -103 -308v-19z" />
<glyph unicode="q" horiz-adv-x="1212" d="M74 496q0 233 127 373q127 141 334 141q132 0 234 -66q103 -67 155 -182v227h18q56 0 86 15v-1242q0 -38 25 -38h143v-76h-440v76h143q25 0 25 38v465q-55 -118 -156 -184q-100 -66 -231 -66q-211 0 -337 141t-126 378zM178 483q0 -199 102 -310q103 -112 273 -112 q165 0 268 115t103 309v19q0 192 -104 308t-267 116q-170 0 -273 -112q-102 -111 -102 -310v-23z" />
<glyph unicode="r" horiz-adv-x="841" d="M49 913v76h51q127 0 217 15v-238q74 244 279 244q94 0 148 -52q53 -51 53 -127q0 -55 -26 -87q-25 -31 -69 -31q-32 0 -52 20q-21 21 -21 49q0 66 69 74q-6 28 -34 52t-80 24q-129 0 -195 -125q-65 -123 -65 -332v-360q0 -39 24 -39h154v-76h-451v76h144q24 0 24 39v753 q0 45 -24 45h-146z" />
<glyph unicode="s" horiz-adv-x="899" d="M92 72v247h84v-202q107 -64 266 -64q131 0 200 51t69 148q0 51 -21 87t-64 58q-46 24 -84 35q-42 12 -112 27q-82 17 -127 31q-44 13 -103 46q-55 31 -81 78q-27 50 -27 117q0 126 97 202q98 77 260 77q189 0 329 -90v-244h-84v196q-102 64 -243 64q-123 0 -192 -51 t-69 -142q0 -43 18 -74t37 -49t66 -33q55 -18 74 -22q27 -6 90 -18q161 -33 246 -93q86 -60 86 -188q0 -133 -96 -211t-269 -78q-199 0 -350 95z" />
<glyph unicode="t" horiz-adv-x="614" d="M37 913v66l121 8q28 1 40 12q11 10 13 41l14 179h80v-230h244v-76h-248v-686q0 -87 36 -128q36 -40 116 -40q40 0 116 21v-76q-66 -22 -133 -22q-124 0 -181 57q-56 56 -56 188v686h-162z" />
<glyph unicode="u" horiz-adv-x="1169" d="M27 913v76h272v-688q0 -132 56 -185q58 -55 167 -55q150 0 242 126q92 127 92 321v366q0 39 -25 39h-145v76h275v-868q0 -45 24 -45h143v-76h-53q-137 0 -217 -14v258q-50 -128 -141 -197q-93 -70 -215 -70q-307 0 -307 318v579q0 39 -25 39h-143z" />
<glyph unicode="v" horiz-adv-x="1140" d="M12 913v76h418v-76h-123q-35 0 -35 -22q0 -8 4 -19l312 -757l303 757q8 21 -1 31t-28 10h-135v76h403v-76h-110q-28 0 -43 -39l-361 -886h-77l-367 886q-17 39 -41 39h-119z" />
<glyph unicode="w" horiz-adv-x="1660" d="M12 913v76h412v-76h-117q-35 0 -35 -22q0 -8 4 -19l232 -739q80 230 134 386q122 352 122 353q5 11 5 19q0 22 -34 22h-86v76h391v-76h-88q-35 0 -34 -22q0 -8 4 -19q0 -3 63 -181q82 -231 128 -365q64 -186 71 -199q1 3 7.5 25t21.5 71.5t31 102.5q102 333 112 365 q55 177 55 181q12 41 -29 41h-129v76h396v-76h-113q-22 0 -39 -39l-285 -886h-79l-297 860l-301 -860h-80l-285 886q-15 39 -39 39h-119z" />
<glyph unicode="x" horiz-adv-x="1122" d="M43 0v76h100q20 0 50 37l309 395l-283 369q-27 36 -45 36h-102v76h395v-76h-113q-31 0 -14 -36l231 -308l234 308q16 36 -14 36h-111v76h373v-76h-107q-18 0 -47 -36l-278 -361l309 -401q30 -39 45 -39h102v-76h-391v76h111q12 0 18 9q7 10 -4 28l-260 342l-262 -342 q-12 -17 -6 -27t20 -10h109v-76h-369z" />
<glyph unicode="y" horiz-adv-x="1138" d="M12 913v76h383v-76h-104q-35 0 -35 -22q0 -8 4 -19l336 -704l303 704q5 11 5 20q0 21 -34 21h-112v76h370v-76h-102q-28 0 -43 -39l-375 -864q-91 -211 -159 -292q-69 -83 -199 -83q-86 0 -144 47q-57 46 -57 115q0 46 26 77q26 30 64 30q43 0 64 -30q11 -17 11 -35 q0 -15 -6 -30q-15 -37 -58 -53q17 -47 100 -47q87 0 150 72q64 73 143 268v10l-387 815q-12 24 -20 32q-7 7 -19 7h-105z" />
<glyph unicode="z" horiz-adv-x="954" d="M57 0v61l721 857h-561q-50 0 -51 -37l-6 -203h-72v311h817v-61l-721 -856h572q32 0 39 7t12 30l6 202h74v-311h-830z" />
<glyph unicode="{" horiz-adv-x="718" d="M25 465v78h36q87 0 128 54q40 53 40 173v193q0 184 86 279t271 112l71 6v-76l-57 -6q-136 -12 -200 -88t-64 -223v-195q0 -217 -133 -268q133 -51 133 -268v-220q0 -147 63 -213q61 -64 201 -75l57 -4v-76l-71 4q-187 11 -271 95q-86 86 -86 267v224q0 120 -40 173 q-41 54 -128 54h-36z" />
<glyph unicode="|" horiz-adv-x="344" d="M127 -352v1712h90v-1712h-90z" />
<glyph unicode="}" horiz-adv-x="718" d="M59 -274l60 4q136 7 199 73t63 213v220q0 219 133 268q-133 49 -133 268v195q0 146 -64 222q-63 75 -198 87l-60 6v78l74 -6q181 -16 269 -113q87 -96 87 -278v-193q0 -120 40 -173q41 -54 128 -54h37v-78h-37q-87 0 -128 -54q-40 -53 -40 -173v-224q0 -181 -86 -267 q-84 -84 -270 -95l-74 -4v78z" />
<glyph unicode="~" horiz-adv-x="1071" d="M244 379l6 47q15 137 133 137q62 0 142 -61q82 -62 120 -62q56 0 62 66l6 45h69l-4 -47q-18 -142 -131 -142q-59 0 -143 64q-82 63 -121 63q-54 0 -64 -65l-6 -45h-69z" />
<glyph unicode="&#xa1;" horiz-adv-x="403" d="M115 1292q0 40 24 65t64 25q39 0 64 -25q26 -26 26 -65q0 -35 -26 -63q-25 -27 -64 -27q-37 0 -63 27q-25 26 -25 63zM141 0v410q0 108 15 322q14 203 16 265h43q5 -66 12 -183q2 -27 7 -105.5t7 -116.5q5 -110 5 -182v-410h-105z" />
<glyph unicode="&#xa2;" horiz-adv-x="1062" d="M68 551q0 214 128 354t324 152v184h66v-184q188 -7 297 -100q108 -91 108 -242q0 -56 -28 -88q-28 -33 -76 -33q-37 0 -60 23q-24 24 -24 57q0 41 26 67q27 27 72 25q-44 208 -315 215v-860q269 8 332 278l79 -20q-33 -150 -140 -241q-107 -90 -271 -95v-174h-66v174 q-207 17 -330 153q-122 135 -122 355zM174 547q0 -184 92 -297q91 -112 254 -127v858q-157 -15 -251 -127q-95 -113 -95 -295v-12z" />
<glyph unicode="&#xa3;" horiz-adv-x="1118" d="M23 143q0 78 56 127t148 49q83 0 179 -45q-5 101 -84 248h-256v74h213q-61 104 -70 120q-25 46 -47 114q-23 72 -23 137q0 193 128 304t347 111q200 0 314 -99t114 -269q0 -130 -94 -137q-34 -4 -58 18q-24 23 -24 57q0 33 24 57q22 22 68 27q-12 122 -101 194 q-90 73 -241 73q-168 0 -270 -90q-100 -88 -100 -244q0 -65 22 -135q22 -69 44 -114q7 -14 67 -124h389v-74h-352q69 -144 69 -250q0 -18 -4 -39q41 -23 91 -53q60 -36 98 -57q33 -18 84 -36q48 -17 92 -17q85 0 117 33t32 118v64h74v-84q0 -224 -213 -224q-30 0 -75 9 q-39 8 -65 18q-31 12 -70 33q-32 17 -61 35q-6 4 -65 43q-57 38 -59 39q-33 -77 -102 -127q-70 -50 -148 -50q-83 0 -136 47q-52 46 -52 119zM92 143q0 -47 33 -74q34 -28 90 -28q63 0 112 43q50 44 68 111q-95 55 -174 55q-59 0 -95 -31q-34 -30 -34 -76z" />
<glyph unicode="&#xa4;" horiz-adv-x="1335" d="M68 485v70h131q-4 65 -4 117q0 35 2 63h-129v70h133q30 270 178 424q147 153 375 153q140 0 243 -68q104 -69 156 -184l8 230h74v-379h-84q-101 315 -391 315q-190 0 -307 -128q-118 -128 -140 -363h627v-70h-633v-69q0 -50 4 -111h547v-70h-539q68 -422 443 -422 q156 0 268 88q111 87 141 252l82 -28q-37 -189 -164 -293q-127 -105 -331 -105q-224 0 -368 133q-142 131 -181 375h-141z" />
<glyph unicode="&#xa5;" horiz-adv-x="1302" d="M59 1284v76h449v-76h-139q-36 0 -19 -31l305 -489l316 489q22 31 -21 31h-143v76h436v-76h-123q-31 0 -53 -31l-352 -536h418v-70h-431v-217h431v-68h-431v-245q0 -41 25 -41h147v-76h-454v76h147q27 0 27 41v245h-430v68h430v217h-430v70h416l-344 536q-22 31 -41 31 h-136z" />
<glyph unicode="&#xa7;" horiz-adv-x="1200" d="M76 551q0 119 89 199q88 79 257 90q-137 83 -137 239q0 117 94 201q95 84 237 84q153 0 244 -74q90 -74 90 -196q0 -50 -26 -79q-27 -30 -70 -30q-24 0 -44 22q-19 20 -19 46q0 27 19 47q18 19 54 24q-11 80 -77 125t-171 45q-110 0 -173 -59q-64 -60 -64 -148 q0 -107 78 -159q83 -56 258 -107q85 -26 152 -51q58 -22 128 -65q65 -40 100 -104q33 -60 33 -142q0 -119 -89 -199t-257 -92q135 -84 135 -238q0 -116 -92 -200q-91 -84 -237 -84q-154 0 -245 72t-91 198q0 50 25 79q25 30 69 30q24 0 44 -22t20 -46q0 -61 -70 -72 q7 -79 75 -125q66 -45 173 -45q108 0 173 60q64 60 64 147q0 108 -77 160q-80 54 -259 106q-73 22 -152 52q-58 22 -128 65q-63 39 -99 104q-34 62 -34 142zM170 565q0 -114 92 -176q90 -61 279 -117l118 -36q173 -15 275 43q100 57 100 165q0 115 -92 177q-88 59 -278 116 q-68 17 -121 37q-173 15 -274 -43q-99 -57 -99 -166z" />
<glyph unicode="&#xa8;" horiz-adv-x="1044" d="M291 1202q0 33 20 52q22 20 54 20t54 -20q21 -20 21 -52t-22 -53q-21 -21 -53 -21q-33 0 -54 21q-20 20 -20 53zM604 1202q0 32 21 52q22 20 53 20q32 0 54 -20t22 -52t-23 -53q-21 -21 -53 -21t-53 21t-21 53z" />
<glyph unicode="&#xa9;" horiz-adv-x="1519" d="M63 678q0 313 194 509q193 195 505 195q307 0 502 -196q194 -195 194 -508q0 -312 -193 -506q-193 -195 -503 -195q-312 0 -505 195q-194 196 -194 506zM129 678q0 -282 176 -460q176 -177 457 -177q282 0 457 177q176 178 176 460q0 284 -177 462q-177 179 -456 179 q-283 0 -458 -178t-175 -463zM403 678q0 176 99 286q99 109 260 109q176 0 242 -151l6 139h59v-277h-63q-50 222 -240 222q-127 0 -204 -86t-77 -238v-8q0 -155 79 -240q80 -86 204 -86q209 0 248 197l67 -23q-27 -119 -109 -180t-212 -61q-155 0 -257 108t-102 289z" />
<glyph unicode="&#xaa;" horiz-adv-x="794" d="M92 842q0 113 106 171q103 56 357 89v55q0 162 -180 162q-126 0 -172 -76q35 -12 35 -51q0 -26 -17 -43q-16 -16 -41 -16q-31 0 -49 19q-18 20 -18 52q0 76 76 127q77 51 194 51q136 0 199 -57t63 -176v-381q0 -29 17 -29h88v-65h-177q-1 6 -18 133q-30 -65 -94 -108 q-63 -42 -156 -42q-94 0 -154 51q-59 50 -59 134zM180 848q0 -55 41 -90t109 -35q106 0 166 74q59 72 59 196v54q-205 -27 -290 -70t-85 -129z" />
<glyph unicode="&#xab;" horiz-adv-x="706" d="M55 481v41l275 203v-94l-176 -131l176 -129v-92zM332 481v41l301 223v-94l-201 -151l201 -150v-94z" />
<glyph unicode="&#xad;" horiz-adv-x="518" d="M51 459v84h434v-84h-434z" />
<glyph unicode="&#xae;" horiz-adv-x="1519" d="M63 678q0 313 194 509q193 195 505 195q307 0 502 -196q194 -195 194 -508q0 -312 -193 -506q-193 -195 -503 -195q-312 0 -505 195q-194 196 -194 506zM129 678q0 -282 176 -460q176 -177 457 -177q282 0 457 177q176 178 176 460q0 284 -177 462q-177 179 -456 179 q-283 0 -458 -178t-175 -463zM438 301v57h88q4 0 4 11v628q0 13 -4 13h-88v55h350q137 0 199 -50t62 -155q0 -156 -168 -190q138 -40 149 -213q5 -63 16 -80q13 -19 48 -19h18v-57h-35q-71 0 -98 36q-26 35 -31 120q-6 96 -55 142t-168 46h-115v-276q0 -11 6 -11h91v-57 h-269zM610 700h148q211 0 211 158q0 152 -185 152h-174v-310z" />
<glyph unicode="&#xaf;" horiz-adv-x="1044" d="M242 1151v76h555v-76h-555z" />
<glyph unicode="&#xb0;" horiz-adv-x="778" d="M84 1067q0 139 87 227t224 88q131 0 215 -88t84 -227q0 -137 -86 -226t-221 -89t-219 88t-84 227zM176 1063q0 -110 57 -176t154 -66q95 0 156 67q59 65 59 175v8q0 111 -57 175q-57 65 -152 65q-97 0 -157 -65q-60 -64 -60 -175v-8z" />
<glyph unicode="&#xb2;" horiz-adv-x="686" d="M57 1159q0 91 81 151t206 60q131 0 203 -60q71 -59 71 -169q0 -81 -49 -130q-51 -51 -119 -74q-20 -7 -68 -22.5t-73 -24.5q-72 -25 -120 -70q-50 -47 -50 -122l-4 -16h393q22 0 23 12l4 129h63v-213h-555v80q0 86 50 145t117 88q56 24 139 55q70 26 117 64q49 40 49 99 q0 78 -51 123q-49 43 -144 43q-86 0 -142 -34t-71 -91q59 -6 59 -52q0 -24 -17 -38q-18 -15 -42 -15q-30 0 -50 22t-20 60z" />
<glyph unicode="&#xb3;" horiz-adv-x="688" d="M55 780q0 40 21 62t53 22q24 0 38 -14q15 -15 15 -37q0 -49 -59 -55q15 -46 70 -71q54 -25 135 -25q217 0 217 161v2q0 146 -209 146q-16 0 -28 -1t-32 -3h-14v67l14 -2h35h27q85 0 137 37q53 38 53 98v4q0 140 -188 140q-164 0 -197 -99q60 -8 60 -55q0 -19 -19 -35 q-17 -14 -41 -14q-33 0 -52 22t-19 60q0 83 74 132q76 50 196 50q134 0 203 -51t69 -147q0 -119 -133 -164q150 -40 150 -187q0 -107 -79 -165t-224 -58q-125 0 -199 48t-74 132z" />
<glyph unicode="&#xb4;" horiz-adv-x="1044" d="M391 1079l223 283h97v-21l-250 -262h-70z" />
<glyph unicode="&#xb6;" horiz-adv-x="1261" d="M74 985q0 375 530 375h598v-76h-127q-24 0 -24 -39v-1245h-84v1284h-201v-1284h-84v623h-76q-272 0 -402 88t-130 274zM184 985q0 -153 97 -220t325 -67h76v586h-76q-228 0 -325 -70t-97 -229z" />
<glyph unicode="&#xb7;" horiz-adv-x="366" d="M94 496q0 37 25 64q24 26 63 26t65 -26q25 -25 25 -64q0 -38 -25 -64t-65 -26q-37 0 -62 26q-26 28 -26 64z" />
<glyph unicode="&#xb8;" horiz-adv-x="1044" d="M338 -307l4 61q108 -45 195 -45q122 0 122 68q0 27 -23 43t-61 16q-56 0 -83 -18l-9 12v182h72v-118q11 4 37 4q70 0 113 -33t43 -88q0 -59 -55 -94t-154 -35q-95 0 -201 45z" />
<glyph unicode="&#xb9;" horiz-adv-x="561" d="M63 1139v63h64q139 0 156 164h67v-678q0 -16 8 -16h166v-60h-440v60h180q6 0 6 16v504q-53 -53 -143 -53h-64z" />
<glyph unicode="&#xba;" horiz-adv-x="841" d="M72 1022q0 163 97 261q97 99 253 99t252 -99t96 -261q0 -167 -97 -265q-98 -100 -255 -100q-154 0 -250 101q-96 100 -96 264zM162 1016q0 -136 68 -213q69 -78 190 -78q120 0 189 78t69 213v8q0 137 -69 215t-189 78t-189 -79q-69 -80 -69 -214v-8z" />
<glyph unicode="&#xbb;" horiz-adv-x="706" d="M74 256v94l202 150l-202 151v94l301 -223v-41zM375 279v92l178 129l-178 131v94l276 -203v-41z" />
<glyph unicode="&#xbf;" horiz-adv-x="983" d="M66 338q0 87 31 150q31 64 80 102q33 26 107 77q101 70 108 75q50 36 86 101t42 148h62v-12q-1 -74 -25 -140q-23 -63 -58 -103q-29 -32 -80 -73q-48 -38 -87 -65q-45 -31 -78 -64q-35 -35 -57 -82q-23 -49 -23 -110q0 -131 89 -208t241 -77q145 0 238 70q91 69 112 190 q-98 6 -98 84q0 34 23 56t59 22q96 -5 96 -127q0 -162 -120 -268q-121 -107 -318 -107q-193 0 -312 101q-118 100 -118 260zM457 1292q0 40 24 65t64 25q39 0 64 -25q26 -26 26 -65q0 -35 -26 -63q-25 -27 -64 -27q-37 0 -63 27q-25 26 -25 63z" />
<glyph unicode="&#xc0;" horiz-adv-x="1499" d="M37 0v76h143q37 0 53 43l478 1251h86l479 -1251q18 -43 45 -43h143v-76h-475v76h152q40 0 24 37l-145 385h-557l-141 -385q-15 -37 22 -37h152v-76h-459zM440 1712l2 21h97l223 -283h-70zM492 573h501l-252 662z" />
<glyph unicode="&#xc1;" horiz-adv-x="1499" d="M37 0v76h143q37 0 53 43l478 1251h86l479 -1251q18 -43 45 -43h143v-76h-475v76h152q40 0 24 37l-145 385h-557l-141 -385q-15 -37 22 -37h152v-76h-459zM492 573h501l-252 662zM739 1450l224 283h96v-21l-250 -262h-70z" />
<glyph unicode="&#xc2;" horiz-adv-x="1499" d="M37 0v76h143q37 0 53 43l478 1251h86l479 -1251q18 -43 45 -43h143v-76h-475v76h152q40 0 24 37l-145 385h-557l-141 -385q-15 -37 22 -37h152v-76h-459zM492 573h501l-252 662zM535 1427l174 273h82l174 -273h-72l-145 215l-144 -215h-69z" />
<glyph unicode="&#xc3;" horiz-adv-x="1499" d="M37 0v76h143q37 0 53 43l478 1251h86l479 -1251q18 -43 45 -43h143v-76h-475v76h152q40 0 24 37l-145 385h-557l-141 -385q-15 -37 22 -37h152v-76h-459zM483 1464l6 47q15 138 134 138q60 0 142 -62q80 -61 120 -61q55 0 61 65l6 45h70l-4 -47q-18 -141 -131 -141 q-61 0 -144 63q-84 64 -120 64q-53 0 -64 -66l-6 -45h-70zM492 573h501l-252 662z" />
<glyph unicode="&#xc4;" horiz-adv-x="1499" d="M37 0v76h143q37 0 53 43l478 1251h86l479 -1251q18 -43 45 -43h143v-76h-475v76h152q40 0 24 37l-145 385h-557l-141 -385q-15 -37 22 -37h152v-76h-459zM492 573h501l-252 662zM520 1554q0 34 21 53q20 19 53 19q34 0 54 -19q22 -20 22 -53q0 -32 -23 -53 q-20 -20 -53 -20t-53 20q-21 21 -21 53zM834 1554q0 34 20 53t53 19q35 0 55 -19q21 -19 21 -53q0 -32 -22 -53q-20 -20 -54 -20q-33 0 -53 20t-20 53z" />
<glyph unicode="&#xc5;" horiz-adv-x="1499" d="M37 0v76h143q37 0 53 43l459 1206q-52 15 -81 56t-29 98q0 69 46 115t124 46q76 0 122 -46q48 -48 48 -115q0 -116 -109 -154l463 -1206q18 -43 45 -43h143v-76h-475v76h152q40 0 24 37l-145 385h-557l-141 -385q-15 -37 22 -37h152v-76h-459zM492 573h501l-252 662z M649 1479q0 -42 29 -73q29 -30 74 -30q42 0 72 30t30 73q0 42 -30 72t-72 30q-46 0 -74 -30q-29 -31 -29 -72z" />
<glyph unicode="&#xc6;" horiz-adv-x="1921" d="M55 0v76h115q48 0 72 43l655 1116q11 23 3 36q-7 13 -21 13h-154v76h1059v-275h-74l-8 162q-6 22 -16 29q-11 8 -39 8h-531v-557h295q41 0 41 33v110h78v-362h-78v110q0 35 -41 35h-295v-577h570q30 0 40 7t15 30l8 161h72v-274h-979v76h145q25 0 25 39v385h-449 l-223 -387q-21 -37 14 -37h129v-76h-428zM606 575h406v699z" />
<glyph unicode="&#xc7;" horiz-adv-x="1353" d="M76 676q0 323 177 515q176 191 449 191q168 0 290 -81q122 -82 173 -214l15 273h71v-490h-82q-89 428 -460 428q-232 0 -378 -162q-147 -164 -147 -446v-22q0 -284 145 -446q144 -161 376 -161q186 0 317 98q132 99 162 302l88 -17q-30 -213 -172 -334 q-140 -119 -357 -130v-86q11 4 37 4q70 0 113 -33t43 -88q0 -59 -54 -94q-55 -35 -155 -35q-95 0 -201 45l4 61q108 -45 195 -45q123 0 123 68q0 27 -24 43q-23 16 -60 16q-57 0 -84 -18l-8 12v147q-266 12 -431 200q-165 187 -165 499z" />
<glyph unicode="&#xc8;" horiz-adv-x="1163" d="M55 0v76h146q24 0 24 39v1130q0 39 -24 39h-146v76h953v-275h-80l-6 162q-5 22 -16 29q-13 8 -42 8h-534v-555h344q41 0 41 33l2 110h74v-364h-74l-2 110q0 35 -41 35h-344v-577h592q30 0 41 8q9 7 14 29l8 161h80v-274h-1010zM322 1712l2 21h96l223 -283h-70z" />
<glyph unicode="&#xc9;" horiz-adv-x="1163" d="M55 0v76h146q24 0 24 39v1130q0 39 -24 39h-146v76h953v-275h-80l-6 162q-5 22 -16 29q-13 8 -42 8h-534v-555h344q41 0 41 33l2 110h74v-364h-74l-2 110q0 35 -41 35h-344v-577h592q30 0 41 8q9 7 14 29l8 161h80v-274h-1010zM506 1450l223 283h96v-21l-250 -262h-69z " />
<glyph unicode="&#xca;" horiz-adv-x="1163" d="M55 0v76h146q24 0 24 39v1130q0 39 -24 39h-146v76h953v-275h-80l-6 162q-5 22 -16 29q-13 8 -42 8h-534v-555h344q41 0 41 33l2 110h74v-364h-74l-2 110q0 35 -41 35h-344v-577h592q30 0 41 8q9 7 14 29l8 161h80v-274h-1010zM367 1446l174 272h82l174 -272h-72 l-145 215l-144 -215h-69z" />
<glyph unicode="&#xcb;" horiz-adv-x="1163" d="M55 0v76h146q24 0 24 39v1130q0 39 -24 39h-146v76h953v-275h-80l-6 162q-5 22 -16 29q-13 8 -42 8h-534v-555h344q41 0 41 33l2 110h74v-364h-74l-2 110q0 35 -41 35h-344v-577h592q30 0 41 8q9 7 14 29l8 161h80v-274h-1010zM342 1573q0 33 20 52q22 20 54 20t54 -20 t22 -52t-23 -53q-21 -21 -53 -21q-33 0 -54 21q-20 20 -20 53zM655 1573q0 33 21 52q22 20 53 20q32 0 54 -20t22 -52t-23 -53q-21 -21 -53 -21t-53 21t-21 53z" />
<glyph unicode="&#xcc;" horiz-adv-x="559" d="M18 1712l2 21h97l223 -283h-70zM55 0v76h146q26 0 26 41v1128q0 39 -26 39h-146v76h447v-76h-146q-24 0 -24 -39v-1128q0 -41 24 -41h146v-76h-447z" />
<glyph unicode="&#xcd;" horiz-adv-x="559" d="M55 0v76h146q26 0 26 41v1128q0 39 -26 39h-146v76h447v-76h-146q-24 0 -24 -39v-1128q0 -41 24 -41h146v-76h-447zM227 1450l224 283h96v-21l-250 -262h-70z" />
<glyph unicode="&#xce;" horiz-adv-x="559" d="M55 0v76h146q26 0 26 41v1128q0 39 -26 39h-146v76h447v-76h-146q-24 0 -24 -39v-1128q0 -41 24 -41h146v-76h-447zM68 1446l174 272h82l174 -272h-72l-145 215l-144 -215h-69z" />
<glyph unicode="&#xcf;" horiz-adv-x="559" d="M53 1573q0 33 21 52q22 20 53 20q32 0 54 -20t22 -52t-23 -53q-21 -21 -53 -21t-53 21t-21 53zM55 0v76h146q26 0 26 41v1128q0 39 -26 39h-146v76h447v-76h-146q-24 0 -24 -39v-1128q0 -41 24 -41h146v-76h-447zM367 1573q0 33 20 52q22 20 53 20q33 0 55 -20 q21 -19 21 -52q0 -32 -22 -53q-21 -21 -54 -21q-32 0 -53 21q-20 20 -20 53z" />
<glyph unicode="&#xd0;" horiz-adv-x="1316" d="M55 0v76h146q24 0 24 41v534h-170v80h170v514q0 39 -24 39h-146v76h480q349 0 527 -175q179 -176 179 -509q0 -328 -186 -502t-539 -174h-461zM330 76h190q311 0 460 152q150 153 150 434v32q0 590 -591 590h-209v-553h358v-80h-358v-575z" />
<glyph unicode="&#xd1;" horiz-adv-x="1529" d="M55 0v76h150q24 0 24 39v1130q0 39 -24 39h-150v76h305l869 -1180v1065q0 39 -25 39h-147v76h428v-76h-148q-24 0 -24 -39v-1251h-76l-924 1251v-1130q0 -39 25 -39h147v-76h-430zM510 1444l6 47q15 137 133 137q63 0 143 -61q82 -62 119 -62q56 0 62 66l6 45h70l-5 -47 q-18 -142 -131 -142q-59 0 -143 64q-82 63 -121 63q-53 0 -63 -65l-6 -45h-70z" />
<glyph unicode="&#xd2;" d="M70 678q0 315 185 509q186 195 472 195q287 0 470 -196q183 -197 183 -508q0 -312 -184 -506q-184 -195 -471 -195q-289 0 -472 195t-183 506zM176 662q0 -272 154 -437q153 -164 395 -164q243 0 396 163q153 164 153 438v32q0 271 -154 439q-152 165 -393 165 q-243 0 -396 -165q-155 -167 -155 -439v-32zM477 1712l2 21h96l224 -283h-70z" />
<glyph unicode="&#xd3;" d="M70 678q0 315 185 509q186 195 472 195q287 0 470 -196q183 -197 183 -508q0 -312 -184 -506q-184 -195 -471 -195q-289 0 -472 195t-183 506zM176 662q0 -272 154 -437q153 -164 395 -164q243 0 396 163q153 164 153 438v32q0 271 -154 439q-152 165 -393 165 q-243 0 -396 -165q-155 -167 -155 -439v-32zM653 1450l224 283h96v-21l-250 -262h-70z" />
<glyph unicode="&#xd4;" d="M70 678q0 315 185 509q186 195 472 195q287 0 470 -196q183 -197 183 -508q0 -312 -184 -506q-184 -195 -471 -195q-289 0 -472 195t-183 506zM176 662q0 -272 154 -437q153 -164 395 -164q243 0 396 163q153 164 153 438v32q0 271 -154 439q-152 165 -393 165 q-243 0 -396 -165q-155 -167 -155 -439v-32zM510 1446l174 272h82l174 -272h-72l-145 215l-143 -215h-70z" />
<glyph unicode="&#xd5;" d="M70 678q0 315 185 509q186 195 472 195q287 0 470 -196q183 -197 183 -508q0 -312 -184 -506q-184 -195 -471 -195q-289 0 -472 195t-183 506zM176 662q0 -272 154 -437q153 -164 395 -164q243 0 396 163q153 164 153 438v32q0 271 -154 439q-152 165 -393 165 q-243 0 -396 -165q-155 -167 -155 -439v-32zM440 1464l6 47q15 138 134 138q60 0 142 -62q80 -61 120 -61q55 0 61 65l6 45h70l-4 -47q-18 -141 -131 -141q-62 0 -144 63q-84 64 -120 64q-54 0 -64 -66l-6 -45h-70z" />
<glyph unicode="&#xd6;" d="M70 678q0 315 185 509q186 195 472 195q287 0 470 -196q183 -197 183 -508q0 -312 -184 -506q-184 -195 -471 -195q-289 0 -472 195t-183 506zM176 662q0 -272 154 -437q153 -164 395 -164q243 0 396 163q153 164 153 438v32q0 271 -154 439q-152 165 -393 165 q-243 0 -396 -165q-155 -167 -155 -439v-32zM496 1554q0 34 20 53t53 19q35 0 55 -19q21 -19 21 -53q0 -32 -22 -53q-20 -20 -54 -20q-33 0 -53 20t-20 53zM809 1554q0 34 20 53t54 19t54 -19q21 -19 21 -53q0 -32 -22 -53q-20 -20 -53 -20q-34 0 -54 20t-20 53z" />
<glyph unicode="&#xd7;" horiz-adv-x="958" d="M104 186l322 316l-322 317l58 60l317 -322l316 320l59 -60l-322 -315l322 -318l-57 -59l-318 321l-315 -319z" />
<glyph unicode="&#xd8;" d="M61 0l181 195q-162 191 -162 483q0 314 186 509t475 195q262 0 443 -170l137 148h90l-182 -197q164 -197 164 -485q0 -311 -186 -506t-474 -195q-270 0 -446 170l-137 -147h-89zM190 666q0 -240 119 -400l811 877q-151 155 -379 155q-241 0 -396 -168 q-155 -169 -155 -440v-24zM350 217q150 -156 383 -156q243 0 396 165t153 440v24q0 239 -121 402z" />
<glyph unicode="&#xd9;" horiz-adv-x="1413" d="M49 1284v76h438v-76h-145q-25 0 -25 -39v-760q0 -233 92 -328q93 -96 314 -96q203 0 297 99q94 98 94 311v774q0 39 -24 39h-152v76h426v-76h-137q-27 -4 -27 -39v-778q0 -247 -120 -369q-120 -121 -365 -121q-270 0 -387 118q-117 119 -117 388v762q0 39 -25 39h-137z M440 1712l2 21h97l223 -283h-70z" />
<glyph unicode="&#xda;" horiz-adv-x="1413" d="M49 1284v76h438v-76h-145q-25 0 -25 -39v-760q0 -233 92 -328q93 -96 314 -96q203 0 297 99q94 98 94 311v774q0 39 -24 39h-152v76h426v-76h-137q-27 -4 -27 -39v-778q0 -247 -120 -369q-120 -121 -365 -121q-270 0 -387 118q-117 119 -117 388v762q0 39 -25 39h-137z M639 1450l223 283h96v-21l-249 -262h-70z" />
<glyph unicode="&#xdb;" horiz-adv-x="1413" d="M49 1284v76h438v-76h-145q-25 0 -25 -39v-760q0 -233 92 -328q93 -96 314 -96q203 0 297 99q94 98 94 311v774q0 39 -24 39h-152v76h426v-76h-137q-27 -4 -27 -39v-778q0 -247 -120 -369q-120 -121 -365 -121q-270 0 -387 118q-117 119 -117 388v762q0 39 -25 39h-137z M498 1446l174 272h82l174 -272h-72l-145 215l-144 -215h-69z" />
<glyph unicode="&#xdc;" horiz-adv-x="1413" d="M49 1284v76h438v-76h-145q-25 0 -25 -39v-760q0 -233 92 -328q93 -96 314 -96q203 0 297 99q94 98 94 311v774q0 39 -24 39h-152v76h426v-76h-137q-27 -4 -27 -39v-778q0 -247 -120 -369q-120 -121 -365 -121q-270 0 -387 118q-117 119 -117 388v762q0 39 -25 39h-137z M483 1554q0 34 21 53q20 19 53 19q34 0 54 -19q22 -20 22 -53q0 -32 -23 -53q-20 -20 -53 -20t-53 20q-21 21 -21 53zM797 1554q0 34 20 53t53 19q35 0 55 -19q21 -19 21 -53q0 -32 -22 -53q-20 -20 -54 -20q-33 0 -53 20t-20 53z" />
<glyph unicode="&#xdd;" horiz-adv-x="1343" d="M55 1284v76h467v-76h-153q-38 0 -17 -33l330 -528l338 530q6 10 4 17q-1 5 -6 10q-4 4 -6 4h-152v76h432v-76h-127q-32 0 -51 -31l-391 -608v-528q0 -41 25 -41h147v-76h-449v76h148q24 0 24 41v528l-385 608q-22 31 -40 31h-138zM616 1450l224 283h96v-21l-250 -262h-70 z" />
<glyph unicode="&#xde;" horiz-adv-x="1124" d="M55 0v76h146q24 0 24 41v1128q0 39 -24 39h-146v76h447v-76h-146q-26 0 -26 -39v-174h162q292 0 426 -89q133 -88 133 -288q0 -207 -130 -297q-131 -90 -432 -90h-159v-190q0 -41 26 -41h148v-76h-449zM330 381h149q249 0 355 71q104 70 104 242q0 166 -104 234 q-105 69 -353 69h-151v-616z" />
<glyph unicode="&#xdf;" horiz-adv-x="1067" d="M47 913v76h152v17q0 192 93 292q93 101 267 101q161 0 253 -84q91 -84 91 -228q0 -101 -54 -173t-151 -101q146 -35 225 -139q78 -103 78 -266q0 -204 -102 -316t-283 -112q-95 0 -176 28v80q74 -31 164 -31q293 0 293 353q0 174 -93 265q-92 91 -269 91h-56v72h45 q142 0 212 66q71 66 71 177q0 114 -65 177t-185 63q-256 0 -256 -305v-1016h-252v76h125q25 0 25 39v798h-152z" />
<glyph unicode="&#xe0;" horiz-adv-x="1085" d="M92 240q0 161 163 246q164 86 527 120v56q0 142 -66 208t-212 66q-212 0 -289 -123q68 -15 68 -78q0 -34 -23 -55t-59 -21q-39 0 -64 28q-24 27 -24 73q0 107 117 178q118 72 282 72q193 0 284 -85t91 -261v-549q0 -39 24 -39h142v-76h-246q-15 85 -21 227 q-44 -118 -147 -183q-107 -67 -238 -67q-137 0 -224 73q-85 72 -85 190zM195 250q0 -86 63 -140q64 -55 166 -55q160 0 259 110t99 284v90q-309 -29 -451 -95q-136 -63 -136 -194zM256 1341l2 21h96l224 -283h-70z" />
<glyph unicode="&#xe1;" horiz-adv-x="1085" d="M92 240q0 161 163 246q164 86 527 120v56q0 142 -66 208t-212 66q-212 0 -289 -123q68 -15 68 -78q0 -34 -23 -55t-59 -21q-39 0 -64 28q-24 27 -24 73q0 107 117 178q118 72 282 72q193 0 284 -85t91 -261v-549q0 -39 24 -39h142v-76h-246q-15 85 -21 227 q-44 -118 -147 -183q-107 -67 -238 -67q-137 0 -224 73q-85 72 -85 190zM195 250q0 -86 63 -140q64 -55 166 -55q160 0 259 110t99 284v90q-309 -29 -451 -95q-136 -63 -136 -194zM430 1079l223 283h97v-21l-250 -262h-70z" />
<glyph unicode="&#xe2;" horiz-adv-x="1085" d="M92 240q0 161 163 246q164 86 527 120v56q0 142 -66 208t-212 66q-212 0 -289 -123q68 -15 68 -78q0 -34 -23 -55t-59 -21q-39 0 -64 28q-24 27 -24 73q0 107 117 178q118 72 282 72q193 0 284 -85t91 -261v-549q0 -39 24 -39h142v-76h-246q-15 85 -21 227 q-44 -118 -147 -183q-107 -67 -238 -67q-137 0 -224 73q-85 72 -85 190zM195 250q0 -86 63 -140q64 -55 166 -55q160 0 259 110t99 284v90q-309 -29 -451 -95q-136 -63 -136 -194zM297 1075l174 273h82l174 -273h-72l-145 215l-143 -215h-70z" />
<glyph unicode="&#xe3;" horiz-adv-x="1085" d="M92 240q0 161 163 246q164 86 527 120v56q0 142 -66 208t-212 66q-212 0 -289 -123q68 -15 68 -78q0 -34 -23 -55t-59 -21q-39 0 -64 28q-24 27 -24 73q0 107 117 178q118 72 282 72q193 0 284 -85t91 -261v-549q0 -39 24 -39h142v-76h-246q-15 85 -21 227 q-44 -118 -147 -183q-107 -67 -238 -67q-137 0 -224 73q-85 72 -85 190zM195 250q0 -86 63 -140q64 -55 166 -55q160 0 259 110t99 284v90q-309 -29 -451 -95q-136 -63 -136 -194zM203 1112l6 47q15 137 133 137q62 0 142 -61t120 -61q56 0 62 65l6 45h69l-4 -47 q-18 -141 -131 -141q-60 0 -143 63q-84 64 -121 64q-52 0 -63 -66l-7 -45h-69z" />
<glyph unicode="&#xe4;" horiz-adv-x="1085" d="M92 240q0 161 163 246q164 86 527 120v56q0 142 -66 208t-212 66q-212 0 -289 -123q68 -15 68 -78q0 -34 -23 -55t-59 -21q-39 0 -64 28q-24 27 -24 73q0 107 117 178q118 72 282 72q193 0 284 -85t91 -261v-549q0 -39 24 -39h142v-76h-246q-15 85 -21 227 q-44 -118 -147 -183q-107 -67 -238 -67q-137 0 -224 73q-85 72 -85 190zM195 250q0 -86 63 -140q64 -55 166 -55q160 0 259 110t99 284v90q-309 -29 -451 -95q-136 -63 -136 -194zM276 1202q0 32 21 52q22 20 53 20q32 0 54 -20t22 -52t-23 -53q-21 -21 -53 -21t-53 21 t-21 53zM590 1202q0 33 20 52q22 20 54 20t54 -20q21 -20 21 -52t-22 -53q-21 -21 -53 -21q-33 0 -54 21q-20 20 -20 53z" />
<glyph unicode="&#xe5;" horiz-adv-x="1085" d="M92 240q0 161 163 246q164 86 527 120v56q0 142 -66 208t-212 66q-212 0 -289 -123q68 -15 68 -78q0 -34 -23 -55t-59 -21q-39 0 -64 28q-24 27 -24 73q0 107 117 178q118 72 282 72q193 0 284 -85t91 -261v-549q0 -39 24 -39h142v-76h-246q-15 85 -21 227 q-44 -118 -147 -183q-107 -67 -238 -67q-137 0 -224 73q-85 72 -85 190zM195 250q0 -86 63 -140q64 -55 166 -55q160 0 259 110t99 284v90q-309 -29 -451 -95q-136 -63 -136 -194zM346 1257q0 70 46 116t122 46q77 0 123 -46q47 -47 47 -116t-47 -116q-45 -45 -123 -45 t-123 46t-45 115zM412 1257q0 -44 28 -73q29 -31 74 -31q44 0 75 31q29 29 29 73q0 45 -29 74q-31 31 -75 31q-45 0 -74 -31q-28 -29 -28 -74z" />
<glyph unicode="&#xe6;" horiz-adv-x="1753" d="M92 240q0 166 160 248q160 81 522 77v29l-4 16v66q0 260 -268 260q-206 0 -301 -123q36 -1 58 -23t22 -55q0 -32 -23 -53q-21 -20 -57 -20q-40 0 -64 28t-24 72q0 105 117 176q118 72 278 72q284 0 334 -226q115 226 397 226q203 0 326 -128q123 -127 123 -343v-50h-826 v-4q0 -191 105 -309q105 -119 280 -119q145 0 239 74q93 73 120 199l80 -19q-33 -149 -149 -241q-117 -93 -296 -93q-329 0 -428 304q-41 -146 -151 -225t-267 -79q-134 0 -219 74q-84 73 -84 189zM195 250q0 -84 62 -139q64 -56 157 -56q163 0 261 104t99 283v54 q-320 2 -449 -55q-130 -57 -130 -191zM864 563h719q-5 172 -95 271q-91 100 -249 100q-164 0 -262 -98t-113 -273z" />
<glyph unicode="&#xe7;" horiz-adv-x="1042" d="M68 496q0 225 141 369q142 145 362 145q188 0 308 -96q118 -94 118 -252q0 -49 -26 -78q-28 -31 -66 -31q-37 0 -59 21q-23 21 -23 55q0 36 23 59q24 24 61 25q-22 104 -109 164q-86 59 -227 59q-180 0 -288 -119q-109 -120 -109 -313v-15q0 -196 104 -315t285 -119 q293 0 359 281l77 -23q-38 -155 -144 -242q-109 -90 -277 -94v-83q11 4 36 4q70 0 113 -33t43 -88q0 -59 -54 -94q-55 -35 -155 -35q-95 0 -201 45l5 61q108 -45 194 -45q123 0 123 68q0 27 -24 43q-23 16 -60 16q-56 0 -84 -18l-8 12v150q-202 18 -320 157t-118 359z" />
<glyph unicode="&#xe8;" horiz-adv-x="1067" d="M68 494q0 227 135 371q136 145 352 145q203 0 325 -132q121 -131 121 -348v-49h-827q0 -183 105 -305q105 -121 280 -121q293 0 361 279l77 -23q-33 -151 -145 -242q-113 -92 -295 -92q-221 0 -355 146t-134 371zM174 553h723q-2 177 -93 280t-251 103q-163 0 -264 -106 q-100 -104 -115 -277zM291 1341l2 21h96l223 -283h-69z" />
<glyph unicode="&#xe9;" horiz-adv-x="1067" d="M68 494q0 227 135 371q136 145 352 145q203 0 325 -132q121 -131 121 -348v-49h-827q0 -183 105 -305q105 -121 280 -121q293 0 361 279l77 -23q-33 -151 -145 -242q-113 -92 -295 -92q-221 0 -355 146t-134 371zM174 553h723q-2 177 -93 280t-251 103q-163 0 -264 -106 q-100 -104 -115 -277zM461 1079l223 283h96v-21l-250 -262h-69z" />
<glyph unicode="&#xea;" horiz-adv-x="1067" d="M68 494q0 227 135 371q136 145 352 145q203 0 325 -132q121 -131 121 -348v-49h-827q0 -183 105 -305q105 -121 280 -121q293 0 361 279l77 -23q-33 -151 -145 -242q-113 -92 -295 -92q-221 0 -355 146t-134 371zM174 553h723q-2 177 -93 280t-251 103q-163 0 -264 -106 q-100 -104 -115 -277zM326 1075l174 273h82l174 -273h-72l-145 215l-144 -215h-69z" />
<glyph unicode="&#xeb;" horiz-adv-x="1067" d="M68 494q0 227 135 371q136 145 352 145q203 0 325 -132q121 -131 121 -348v-49h-827q0 -183 105 -305q105 -121 280 -121q293 0 361 279l77 -23q-33 -151 -145 -242q-113 -92 -295 -92q-221 0 -355 146t-134 371zM174 553h723q-2 177 -93 280t-251 103q-163 0 -264 -106 q-100 -104 -115 -277zM303 1202q0 32 21 52q22 20 53 20q32 0 54 -20t22 -52t-23 -53q-21 -21 -53 -21t-53 21t-21 53zM616 1202q0 32 21 52q22 20 53 20q32 0 54 -20t22 -52t-23 -53q-21 -21 -53 -21t-53 21t-21 53z" />
<glyph unicode="&#xec;" horiz-adv-x="532" d="M-14 1341l2 21h96l223 -283h-69zM49 0v76h146q22 0 22 39v716q0 47 -9 65q-8 17 -36 17h-123v76h55q130 0 220 15v-889q0 -39 22 -39h135v-76h-432z" />
<glyph unicode="&#xed;" horiz-adv-x="532" d="M49 0v76h146q22 0 22 39v716q0 47 -9 65q-8 17 -36 17h-123v76h55q130 0 220 15v-889q0 -39 22 -39h135v-76h-432zM131 1079l223 283h97v-21l-250 -262h-70z" />
<glyph unicode="&#xee;" horiz-adv-x="532" d="M43 1075l174 273h82l174 -273h-72l-145 215l-143 -215h-70zM49 0v76h146q22 0 22 39v716q0 47 -9 65q-8 17 -36 17h-123v76h55q130 0 220 15v-889q0 -39 22 -39h135v-76h-432z" />
<glyph unicode="&#xef;" horiz-adv-x="532" d="M18 1202q0 32 21 52q22 20 53 20q32 0 54 -20t22 -52t-23 -53q-21 -21 -53 -21t-53 21t-21 53zM49 0v76h146q22 0 22 39v716q0 47 -9 65q-8 17 -36 17h-123v76h55q130 0 220 15v-889q0 -39 22 -39h135v-76h-432zM332 1202q0 33 20 52q22 20 54 20t54 -20q21 -20 21 -52 t-22 -53q-21 -21 -53 -21q-33 0 -54 21q-20 20 -20 53z" />
<glyph unicode="&#xf0;" horiz-adv-x="1105" d="M74 477q0 227 127 363q128 137 338 137q130 0 228 -58q100 -59 155 -163q-51 323 -316 463l-262 -103l-16 66l192 73q-101 41 -258 70l27 80q208 -38 344 -105l237 93l17 -66l-176 -70q325 -202 325 -700q0 -264 -131 -422t-356 -158q-218 0 -347 138q-128 137 -128 362z M176 467q0 -189 102 -298q102 -110 275 -110q165 0 269 113t104 295v20q0 195 -99 301q-99 107 -274 107q-171 0 -274 -109t-103 -297v-22z" />
<glyph unicode="&#xf1;" horiz-adv-x="1204" d="M49 0v76h144q24 0 24 39v753q0 45 -24 45h-144v76h55q128 0 218 15v-279q52 138 144 211q94 74 218 74q309 0 309 -330v-565q0 -39 25 -39h143v-76h-430v76h133q25 0 25 39v559q0 127 -53 191q-53 63 -170 63q-155 0 -249 -136q-95 -137 -95 -368v-309q0 -39 24 -39h143 v-76h-440zM313 1112l6 47q15 137 134 137q62 0 142 -61t120 -61q55 0 61 65l6 45h70l-4 -47q-18 -141 -131 -141q-61 0 -144 63q-84 64 -120 64q-54 0 -64 -66l-6 -45h-70z" />
<glyph unicode="&#xf2;" horiz-adv-x="1110" d="M68 496q0 225 137 370q137 144 354 144q213 0 347 -143t134 -371q0 -230 -135 -374q-136 -145 -352 -145q-214 0 -350 145q-135 144 -135 374zM172 489q0 -198 103 -316t278 -118q179 0 282 118t103 316v11q0 198 -103 316t-278 118q-179 0 -282 -118t-103 -316v-11z M285 1341l2 21h96l223 -283h-69z" />
<glyph unicode="&#xf3;" horiz-adv-x="1110" d="M68 496q0 225 137 370q137 144 354 144q213 0 347 -143t134 -371q0 -230 -135 -374q-136 -145 -352 -145q-214 0 -350 145q-135 144 -135 374zM172 489q0 -198 103 -316t278 -118q179 0 282 118t103 316v11q0 198 -103 316t-278 118q-179 0 -282 -118t-103 -316v-11z M500 1079l223 283h96v-21l-250 -262h-69z" />
<glyph unicode="&#xf4;" horiz-adv-x="1110" d="M68 496q0 225 137 370q137 144 354 144q213 0 347 -143t134 -371q0 -230 -135 -374q-136 -145 -352 -145q-214 0 -350 145q-135 144 -135 374zM172 489q0 -198 103 -316t278 -118q179 0 282 118t103 316v11q0 198 -103 316t-278 118q-179 0 -282 -118t-103 -316v-11z M338 1075l174 273h82l174 -273h-72l-145 215l-143 -215h-70z" />
<glyph unicode="&#xf5;" horiz-adv-x="1110" d="M68 496q0 225 137 370q137 144 354 144q213 0 347 -143t134 -371q0 -230 -135 -374q-136 -145 -352 -145q-214 0 -350 145q-135 144 -135 374zM172 489q0 -198 103 -316t278 -118q179 0 282 118t103 316v11q0 198 -103 316t-278 118q-179 0 -282 -118t-103 -316v-11z M287 1112l6 47q15 137 133 137q62 0 142 -61t120 -61q56 0 62 65l6 45h69l-4 -47q-18 -141 -131 -141q-60 0 -143 63q-84 64 -121 64q-54 0 -64 -66l-6 -45h-69z" />
<glyph unicode="&#xf6;" horiz-adv-x="1110" d="M68 496q0 225 137 370q137 144 354 144q213 0 347 -143t134 -371q0 -230 -135 -374q-136 -145 -352 -145q-214 0 -350 145q-135 144 -135 374zM172 489q0 -198 103 -316t278 -118q179 0 282 118t103 316v11q0 198 -103 316t-278 118q-179 0 -282 -118t-103 -316v-11z M324 1202q0 33 20 52q22 20 53 20q33 0 55 -20q21 -20 21 -52t-22 -53q-21 -21 -54 -21q-32 0 -53 21q-20 20 -20 53zM637 1202q0 33 20 52q22 20 54 20t54 -20q21 -20 21 -52t-22 -53q-21 -21 -53 -21q-33 0 -54 21q-20 20 -20 53z" />
<glyph unicode="&#xf7;" horiz-adv-x="958" d="M100 463v80h758v-80h-758zM403 205q0 33 21 52q20 19 53 19q34 0 54 -19q22 -20 22 -52t-23 -53q-21 -21 -53 -21t-53 21t-21 53zM403 795q0 33 21 52q20 19 53 19q34 0 54 -19q22 -20 22 -52q0 -33 -23 -54q-20 -20 -53 -20t-53 20q-21 21 -21 54z" />
<glyph unicode="&#xf8;" horiz-adv-x="1110" d="M70 0l120 133q-120 138 -120 363q0 231 135 372q136 142 354 142q182 0 311 -109l80 90h90l-122 -137q122 -140 122 -358q0 -230 -135 -374q-136 -145 -352 -145q-186 0 -315 109l-78 -86h-90zM174 489q0 -173 80 -288l559 637q-98 98 -256 98q-175 0 -279 -119 t-104 -317v-11zM295 152q99 -99 258 -99q176 0 281 119q104 117 104 317v11q0 174 -84 291z" />
<glyph unicode="&#xf9;" horiz-adv-x="1169" d="M27 913v76h272v-688q0 -132 56 -185q58 -55 167 -55q150 0 242 126q92 127 92 321v366q0 39 -25 39h-145v76h275v-868q0 -45 24 -45h143v-76h-53q-137 0 -217 -14v258q-50 -128 -141 -197q-93 -70 -215 -70q-307 0 -307 318v579q0 39 -25 39h-143zM283 1341l2 21h96 l223 -283h-69z" />
<glyph unicode="&#xfa;" horiz-adv-x="1169" d="M27 913v76h272v-688q0 -132 56 -185q58 -55 167 -55q150 0 242 126q92 127 92 321v366q0 39 -25 39h-145v76h275v-868q0 -45 24 -45h143v-76h-53q-137 0 -217 -14v258q-50 -128 -141 -197q-93 -70 -215 -70q-307 0 -307 318v579q0 39 -25 39h-143zM492 1079l223 283h96 v-21l-250 -262h-69z" />
<glyph unicode="&#xfb;" horiz-adv-x="1169" d="M27 913v76h272v-688q0 -132 56 -185q58 -55 167 -55q150 0 242 126q92 127 92 321v366q0 39 -25 39h-145v76h275v-868q0 -45 24 -45h143v-76h-53q-137 0 -217 -14v258q-50 -128 -141 -197q-93 -70 -215 -70q-307 0 -307 318v579q0 39 -25 39h-143zM348 1075l174 273h82 l174 -273h-71l-146 215l-143 -215h-70z" />
<glyph unicode="&#xfc;" horiz-adv-x="1169" d="M27 913v76h272v-688q0 -132 56 -185q58 -55 167 -55q150 0 242 126q92 127 92 321v366q0 39 -25 39h-145v76h275v-868q0 -45 24 -45h143v-76h-53q-137 0 -217 -14v258q-50 -128 -141 -197q-93 -70 -215 -70q-307 0 -307 318v579q0 39 -25 39h-143zM315 1202q0 32 21 52 q22 20 53 20q32 0 54 -20t22 -52t-23 -53q-21 -21 -53 -21t-53 21t-21 53zM629 1202q0 33 20 52q22 20 53 20q33 0 55 -20q21 -20 21 -52t-22 -53q-21 -21 -54 -21q-32 0 -53 21q-20 20 -20 53z" />
<glyph unicode="&#xfd;" horiz-adv-x="1138" d="M12 913v76h383v-76h-104q-48 0 -31 -41l336 -704l303 704q18 41 -29 41h-112v76h370v-76h-102q-28 0 -43 -39l-375 -864q-91 -211 -159 -292q-69 -83 -199 -83q-86 0 -144 47q-57 46 -57 115q0 46 26 77q26 30 64 30q43 0 64 -30q20 -29 5 -65q-15 -37 -58 -53 q17 -47 100 -47q87 0 150 72q64 73 143 268v10l-387 815q-12 24 -20 32q-7 7 -19 7h-105zM516 1079l223 283h97v-21l-250 -262h-70z" />
<glyph unicode="&#xfe;" horiz-adv-x="1232" d="M33 1286v74h57q133 0 217 14v-616q52 118 156 185t235 67q210 0 335 -140q124 -139 124 -374q0 -236 -126 -377q-127 -142 -335 -142q-130 0 -234 67q-103 66 -155 183v-467q0 -39 25 -39h133v-73h-430v73h143q25 0 25 39v1481q0 45 -25 45h-145zM307 485 q0 -193 105 -308q105 -116 266 -116q168 0 271 115q102 114 102 307v23q0 193 -102 307q-103 115 -271 115q-163 0 -267 -115t-104 -309v-19z" />
<glyph unicode="&#xff;" horiz-adv-x="1138" d="M12 913v76h383v-76h-104q-48 0 -31 -41l336 -704l303 704q18 41 -29 41h-112v76h370v-76h-102q-28 0 -43 -39l-375 -864q-91 -211 -159 -292q-69 -83 -199 -83q-86 0 -144 47q-57 46 -57 115q0 46 26 77q26 30 64 30q43 0 64 -30q20 -29 5 -65q-15 -37 -58 -53 q17 -47 100 -47q87 0 150 72q64 73 143 268v10l-387 815q-12 24 -20 32q-7 7 -19 7h-105zM354 1202q0 32 21 52q22 20 53 20q32 0 54 -20t22 -52t-23 -53q-21 -21 -53 -21t-53 21t-21 53zM668 1202q0 33 20 52q22 20 53 20q33 0 55 -20q21 -20 21 -52t-22 -53 q-21 -21 -54 -21q-32 0 -53 21q-20 20 -20 53z" />
<glyph unicode="&#x152;" horiz-adv-x="1914" d="M72 684q0 320 191 498t554 178h957v-275h-72l-8 162q-6 21 -17 29t-39 8h-548v-557h311q41 0 41 33l2 110h76v-362h-76l-2 110q0 35 -41 35h-311v-577h585q33 0 43 7t15 30l6 161h73v-274h-1015q-353 0 -539 177t-186 507zM186 666q0 -289 154 -440q153 -150 457 -150 h184v1208h-164q-311 0 -471 -154t-160 -432v-32z" />
<glyph unicode="&#x153;" horiz-adv-x="1947" d="M70 496q0 232 136 372q137 142 357 142q161 0 275 -78t163 -217q46 141 160 218q113 77 275 77q202 0 324 -128t122 -343v-50h-825v-4q0 -192 104 -309q105 -119 283 -119q142 0 236 74q93 73 120 199l80 -19q-33 -150 -148 -241q-117 -93 -294 -93q-157 0 -272 80 q-111 78 -162 222q-52 -143 -167 -222q-116 -80 -278 -80q-219 0 -354 143q-135 142 -135 376zM174 489q0 -197 105 -316q105 -118 282 -118q180 0 285 118q104 117 104 316v11q0 198 -103 316t-282 118q-180 0 -285 -118q-106 -120 -106 -316v-11zM1059 563h719 q-5 170 -95 271q-90 100 -247 100q-166 0 -264 -98t-113 -273z" />
<glyph unicode="&#x178;" horiz-adv-x="1343" d="M55 1284v76h467v-76h-153q-38 0 -17 -33l330 -528l338 530q6 10 4 17q-1 5 -6 10q-4 4 -6 4h-152v76h432v-76h-127q-32 0 -51 -31l-391 -608v-528q0 -41 25 -41h147v-76h-449v76h148q25 0 25 41v528l-386 608q-22 31 -40 31h-138zM444 1554q0 34 21 53q20 19 53 19 q34 0 54 -19q22 -20 22 -53q0 -32 -23 -53q-20 -20 -53 -20t-53 20q-21 21 -21 53zM758 1554q0 34 20 53t53 19q35 0 55 -19q21 -19 21 -53q0 -32 -22 -53q-20 -20 -54 -20q-33 0 -53 20t-20 53z" />
<glyph unicode="&#x2dc;" horiz-adv-x="1044" d="M254 1112l6 47q15 137 133 137q63 0 143 -61t119 -61q56 0 62 65l6 45h70l-5 -47q-18 -141 -131 -141q-61 0 -143 63q-84 64 -121 64q-53 0 -63 -66l-6 -45h-70z" />
<glyph unicode="&#x2000;" horiz-adv-x="866" />
<glyph unicode="&#x2001;" horiz-adv-x="1733" />
<glyph unicode="&#x2002;" horiz-adv-x="866" />
<glyph unicode="&#x2003;" horiz-adv-x="1733" />
<glyph unicode="&#x2004;" horiz-adv-x="577" />
<glyph unicode="&#x2005;" horiz-adv-x="433" />
<glyph unicode="&#x2006;" horiz-adv-x="288" />
<glyph unicode="&#x2007;" horiz-adv-x="288" />
<glyph unicode="&#x2008;" horiz-adv-x="216" />
<glyph unicode="&#x2009;" horiz-adv-x="346" />
<glyph unicode="&#x200a;" horiz-adv-x="96" />
<glyph unicode="&#x2010;" horiz-adv-x="518" d="M51 459v84h434v-84h-434z" />
<glyph unicode="&#x2011;" horiz-adv-x="518" d="M51 459v84h434v-84h-434z" />
<glyph unicode="&#x2012;" horiz-adv-x="518" d="M51 459v84h434v-84h-434z" />
<glyph unicode="&#x2013;" horiz-adv-x="772" d="M51 463v78h670v-78h-670z" />
<glyph unicode="&#x2014;" horiz-adv-x="905" d="M51 463v78h803v-78h-803z" />
<glyph unicode="&#x2018;" horiz-adv-x="366" d="M51 1161q0 87 58 147q57 58 149 58q26 0 43 -6v-64q-11 4 -39 4q-58 0 -94 -35q-37 -36 -37 -100q0 -31 12 -53q23 45 74 45q37 0 58 -21q22 -22 22 -57q0 -38 -29 -62q-28 -24 -71 -24q-59 0 -103 47q-43 46 -43 121z" />
<glyph unicode="&#x2019;" horiz-adv-x="366" d="M66 1014v63q11 -4 38 -4q58 0 95 36t37 99q0 28 -15 52q-21 -46 -71 -46q-37 0 -59 22q-21 21 -21 58q0 39 28 63q27 23 72 23q58 0 102 -48q43 -47 43 -122q0 -88 -57 -145t-149 -57q-28 0 -43 6z" />
<glyph unicode="&#x201a;" horiz-adv-x="366" d="M66 -147q6 0 16 -1q20 -2 22 -2q58 0 95 36t37 100q0 27 -15 51q-21 -45 -71 -45q-38 0 -59 21t-21 59t28 62t72 24q58 0 102 -48q43 -47 43 -122q0 -88 -57 -147q-57 -58 -149 -58q-13 0 -43 6v64z" />
<glyph unicode="&#x201c;" horiz-adv-x="673" d="M51 1161q0 87 58 147q57 58 149 58q26 0 43 -6v-64h-2q-2 1 -6 1.5t-8 0.5q-20 2 -23 2q-58 0 -94 -36q-37 -37 -37 -101q0 -29 12 -53q18 47 74 47q37 0 58 -21q22 -22 22 -59q0 -38 -29 -62q-28 -24 -71 -24q-59 0 -103 48q-43 47 -43 122zM360 1161q0 89 57 147 t148 58q27 0 43 -6v-64h-2q-2 1 -6 1.5t-8 0.5q-20 2 -23 2q-58 0 -94 -36q-37 -37 -37 -101q0 -30 13 -53q23 47 75 47q36 0 57 -21t21 -59t-27 -62t-73 -24q-60 0 -102 48t-42 122z" />
<glyph unicode="&#x201d;" horiz-adv-x="673" d="M66 1014v63q11 -4 38 -4q58 0 95 36t37 99q0 28 -15 52q-21 -46 -71 -46q-37 0 -59 22q-21 21 -21 58q0 39 28 63q27 23 72 23q58 0 102 -48q43 -47 43 -122q0 -88 -57 -145t-149 -57q-28 0 -43 6zM373 1014v63q11 -4 39 -4q56 0 94 36q37 36 37 99q0 28 -15 52 q-21 -46 -71 -46q-37 0 -59 22q-21 21 -21 58q0 39 29 63q27 23 71 23q59 0 103 -48q43 -47 43 -122q0 -87 -58 -145q-57 -57 -149 -57q-28 0 -43 6z" />
<glyph unicode="&#x201e;" horiz-adv-x="673" d="M66 -147q6 0 16 -1q20 -2 22 -2q58 0 95 36t37 100q0 27 -15 51q-21 -45 -72 -45q-37 0 -58 21t-21 59t28 62t72 24q58 0 102 -48q43 -47 43 -122q0 -88 -57 -147q-57 -58 -149 -58q-13 0 -43 6v64zM373 -147q6 0 16 -1q20 -2 23 -2q56 0 94 36q37 36 37 100q0 27 -15 51 q-21 -45 -71 -45q-38 0 -59 21t-21 59t29 62q28 24 71 24q59 0 103 -48q43 -47 43 -122q0 -87 -58 -147q-57 -58 -149 -58q-13 0 -43 6v64z" />
<glyph unicode="&#x2022;" horiz-adv-x="606" d="M82 504q0 92 62 151q63 60 161 60t159 -59q60 -59 60 -152q0 -92 -61 -152q-60 -59 -162 -59q-100 0 -159 58q-60 59 -60 153z" />
<glyph unicode="&#x2026;" horiz-adv-x="1058" d="M94 68q0 37 25 64q24 26 63 26t65 -26q25 -25 25 -64q0 -38 -25 -64q-25 -27 -65 -27q-36 0 -62 27q-26 28 -26 64zM440 68q0 37 25 64q24 26 63 26t65 -26q25 -25 25 -64q0 -38 -25 -64q-25 -27 -65 -27q-36 0 -62 27q-26 28 -26 64zM786 68q0 37 25 64q24 26 63 26 t65 -26t26 -64q0 -36 -26 -64q-25 -27 -65 -27q-36 0 -62 27q-26 28 -26 64z" />
<glyph unicode="&#x202f;" horiz-adv-x="346" />
<glyph unicode="&#x2039;" horiz-adv-x="430" d="M55 481v41l301 223v-94l-200 -151l200 -150v-94z" />
<glyph unicode="&#x203a;" horiz-adv-x="430" d="M74 256v94l202 150l-202 151v94l301 -223v-41z" />
<glyph unicode="&#x205f;" horiz-adv-x="433" />
<glyph unicode="&#x20ac;" horiz-adv-x="1335" d="M68 485v70h131q-4 65 -4 117q0 35 2 63h-129v70h133q30 270 178 424q147 153 375 153q140 0 243 -68q104 -69 156 -184l8 230h74v-379h-84q-101 315 -391 315q-190 0 -307 -128q-118 -128 -140 -363h627v-70h-633v-69q0 -50 4 -111h547v-70h-539q68 -422 443 -422 q156 0 268 88q111 87 141 252l82 -28q-37 -189 -164 -293q-127 -105 -331 -105q-224 0 -368 133q-142 131 -181 375h-141z" />
<glyph unicode="&#x2122;" horiz-adv-x="1515" d="M39 1167v193h569v-193h-61l-6 127q-2 11 -21 11h-160v-504q0 -15 5 -15h81v-57h-247v57h82q6 0 6 15v504h-162q-19 0 -19 -11l-6 -127h-61zM662 729v57h79q9 0 9 15v491q0 11 -7 11h-81v57h206l197 -502l203 502h202v-57h-81q-5 0 -5 -11v-491q0 -15 5 -15h81v-57h-245 v57h84q4 0 4 15v495l-230 -567h-49l-223 567v-495q0 -15 6 -15h78v-57h-233z" />
<glyph unicode="&#x25fc;" horiz-adv-x="993" d="M0 0v993h993v-993h-993z" />
</font>
</defs>
</svg>
